M48
;Layer_Color=9474304
;FILE_FORMAT=4:4
METRIC,LZ
;TYPE=PLATED
T01F00S00C0.3000
T02F00S00C1.0000
T03F00S00C1.0500
T04F00S00C1.2000
T05F00S00C3.0000
%
T01
X002245Y0007225
X00223Y00159
X0019325Y00147
X0028075Y0003575
X00299Y0004225
X0032625Y00061
X0037675Y0002775
X003775Y0012825
X0046075Y00047
X0055275Y0002425
X00553Y00258
X00353
X0030375Y00275
X002805Y0026725
X0026075Y002415
X0032375Y00301771
X00377Y00358
X0035275Y0050275
X0031Y0052175
X00323813Y00542169
X002805Y0051225
X0022575Y00537
X002615Y004445
X0021325Y0038725
X0055325Y005
X00164Y00353
X0016725Y003235
X0014Y0031375
X001635Y00583
X001755Y006005
X002615Y0069475
X0028075Y00714
X0034525Y0069875
X003785Y00659
X0037725Y0060425
X0032425Y007635
X0051025Y0069175
X005505Y00709
X0072Y0082
T02
X0011Y0011
Y0014
X0014
Y0011
X00153Y00858
X00127
X0044Y008596
Y00885
Y009104
X00495
Y00885
Y008596
X00545
Y00885
Y009104
T03
X001973Y0085878
X002227
X002735
X002989
X003243
T04
X007085Y0030065
Y0032605
Y0035145
Y0037685
T05
X0004Y0004
X00067Y00125
X0076Y0004
X0004Y009
X0076
M30
