G04*
G04 #@! TF.GenerationSoftware,Altium Limited,Altium Designer,24.0.1 (36)*
G04*
G04 Layer_Color=8388736*
%FSLAX44Y44*%
%MOMM*%
G71*
G04*
G04 #@! TF.SameCoordinates,65C3A42A-BC2E-465B-ACE7-51DAAD075D16*
G04*
G04*
G04 #@! TF.FilePolarity,Negative*
G04*
G01*
G75*
%ADD14C,0.8000*%
%ADD15R,1.6000X1.4000*%
%ADD16R,1.4000X1.6000*%
%ADD17R,0.7000X1.2000*%
%ADD18R,1.2000X0.7000*%
%ADD19R,3.6000X2.3000*%
%ADD20R,1.3000X2.3000*%
%ADD21R,2.3500X0.7000*%
%ADD22C,5.1000*%
%ADD23R,1.9000X1.9000*%
%ADD24C,1.9000*%
%ADD25C,2.1000*%
%ADD26R,2.1000X2.1000*%
%ADD27C,0.1000*%
%ADD28R,1.6750X1.6750*%
%ADD29C,1.6750*%
%ADD30C,0.7000*%
D14*
X0Y0D02*
X800000D01*
X0Y940001D02*
X800000D01*
Y0D02*
Y940001D01*
X0Y0D02*
Y940001D01*
D15*
X603750Y553500D02*
D03*
Y572500D02*
D03*
X671750Y589250D02*
D03*
Y570250D02*
D03*
X578250Y572750D02*
D03*
Y553750D02*
D03*
X669750Y347000D02*
D03*
Y328000D02*
D03*
X601500Y310250D02*
D03*
Y329250D02*
D03*
X576000Y329250D02*
D03*
Y310250D02*
D03*
X633750Y117000D02*
D03*
Y98000D02*
D03*
X513500Y78750D02*
D03*
Y97750D02*
D03*
X608000Y77000D02*
D03*
Y96000D02*
D03*
X582250Y96000D02*
D03*
Y77000D02*
D03*
X402250Y97750D02*
D03*
Y78750D02*
D03*
X171773Y698273D02*
D03*
Y679273D02*
D03*
X197500Y698250D02*
D03*
Y679250D02*
D03*
X170750Y451250D02*
D03*
Y432250D02*
D03*
X178250Y218500D02*
D03*
Y199500D02*
D03*
X203250Y218500D02*
D03*
Y199500D02*
D03*
X196750Y451250D02*
D03*
Y432250D02*
D03*
X575000Y885500D02*
D03*
Y904500D02*
D03*
X392750Y680000D02*
D03*
Y699000D02*
D03*
X365000Y698750D02*
D03*
Y679750D02*
D03*
X242822Y572821D02*
D03*
Y553821D02*
D03*
X243370Y596603D02*
D03*
Y615603D02*
D03*
X288460Y650124D02*
D03*
Y669124D02*
D03*
X399500Y553500D02*
D03*
Y572500D02*
D03*
X313938Y669124D02*
D03*
Y650124D02*
D03*
X355500Y604000D02*
D03*
Y623000D02*
D03*
X285660Y404024D02*
D03*
Y423024D02*
D03*
X311406Y423133D02*
D03*
Y404133D02*
D03*
X352966Y377276D02*
D03*
Y358276D02*
D03*
X240305Y348956D02*
D03*
Y367956D02*
D03*
X510250Y572750D02*
D03*
Y553750D02*
D03*
X243805Y94728D02*
D03*
Y75728D02*
D03*
X240273Y324672D02*
D03*
Y305672D02*
D03*
X292383Y173696D02*
D03*
Y192696D02*
D03*
X318004Y192937D02*
D03*
Y173937D02*
D03*
X359433Y147250D02*
D03*
Y128250D02*
D03*
X243805Y119031D02*
D03*
Y138031D02*
D03*
X396500Y310500D02*
D03*
Y329500D02*
D03*
X508000D02*
D03*
Y310500D02*
D03*
D16*
X647250Y571250D02*
D03*
X628250D02*
D03*
X534750Y521500D02*
D03*
X553750D02*
D03*
X596250Y529250D02*
D03*
X577250D02*
D03*
X645250Y328750D02*
D03*
X626250D02*
D03*
X532500Y278000D02*
D03*
X551500D02*
D03*
X594000Y286000D02*
D03*
X575000D02*
D03*
X483500Y328500D02*
D03*
X464500D02*
D03*
X615250Y141500D02*
D03*
X634250D02*
D03*
X420250Y52750D02*
D03*
X401250D02*
D03*
X557500Y44250D02*
D03*
X538500D02*
D03*
X197273Y654773D02*
D03*
X178273D02*
D03*
X193250Y407500D02*
D03*
X174250D02*
D03*
X234000Y218750D02*
D03*
X253000D02*
D03*
X200750Y175000D02*
D03*
X181750D02*
D03*
X228000Y444500D02*
D03*
X247000D02*
D03*
X229000Y694250D02*
D03*
X248000D02*
D03*
X377250Y46500D02*
D03*
X358250D02*
D03*
X371500Y277000D02*
D03*
X352500D02*
D03*
X421750Y328500D02*
D03*
X440750D02*
D03*
X466500Y571500D02*
D03*
X485500D02*
D03*
X581250Y52500D02*
D03*
X600250D02*
D03*
X510250Y712000D02*
D03*
X529250D02*
D03*
X485250Y597250D02*
D03*
X466250D02*
D03*
X418500Y698000D02*
D03*
X437500D02*
D03*
X443000Y571500D02*
D03*
X424000D02*
D03*
X294931Y539436D02*
D03*
X275931D02*
D03*
X290910Y625480D02*
D03*
X309909D02*
D03*
X217966Y574000D02*
D03*
X198967D02*
D03*
X217966Y599624D02*
D03*
X198967D02*
D03*
X417500Y528750D02*
D03*
X398500D02*
D03*
X355500Y523750D02*
D03*
X374500D02*
D03*
X292106Y294032D02*
D03*
X273106D02*
D03*
X200000Y94250D02*
D03*
X219000D02*
D03*
X196535Y349991D02*
D03*
X215534D02*
D03*
X196500Y324000D02*
D03*
X215500D02*
D03*
X294803Y63744D02*
D03*
X275803D02*
D03*
X470000Y96750D02*
D03*
X489000D02*
D03*
X446000D02*
D03*
X427000D02*
D03*
X200000Y120515D02*
D03*
X219000D02*
D03*
X312164Y149233D02*
D03*
X293164D02*
D03*
X464500Y354000D02*
D03*
X483500D02*
D03*
X395500Y285750D02*
D03*
X414500D02*
D03*
X470000Y122750D02*
D03*
X489000D02*
D03*
X287276Y379504D02*
D03*
X306276D02*
D03*
D17*
X553750Y572250D02*
D03*
X544250D02*
D03*
X534750D02*
D03*
Y546250D02*
D03*
X553750D02*
D03*
X551500Y329000D02*
D03*
X542000D02*
D03*
X532500D02*
D03*
Y303000D02*
D03*
X551500D02*
D03*
X377250Y97750D02*
D03*
X367750D02*
D03*
X358250D02*
D03*
Y71750D02*
D03*
X377250D02*
D03*
X375000Y575000D02*
D03*
X365500D02*
D03*
X356000D02*
D03*
Y549000D02*
D03*
X375000D02*
D03*
X371500Y328750D02*
D03*
X362000D02*
D03*
X352500D02*
D03*
Y302750D02*
D03*
X371500D02*
D03*
X557500Y95500D02*
D03*
X548000D02*
D03*
X538500D02*
D03*
Y69500D02*
D03*
X557500D02*
D03*
D18*
X254500Y194000D02*
D03*
Y175000D02*
D03*
X228500D02*
D03*
Y184500D02*
D03*
Y194000D02*
D03*
X248000Y420000D02*
D03*
Y401000D02*
D03*
X222000D02*
D03*
Y410500D02*
D03*
Y420000D02*
D03*
X252000Y669750D02*
D03*
Y650750D02*
D03*
X226000D02*
D03*
Y660250D02*
D03*
Y669750D02*
D03*
D19*
X516000Y753750D02*
D03*
X437500Y753750D02*
D03*
X594797Y753750D02*
D03*
D20*
X493000Y815750D02*
D03*
X516000D02*
D03*
X539000D02*
D03*
X414500Y815750D02*
D03*
X437500D02*
D03*
X460500D02*
D03*
X571797Y815750D02*
D03*
X594797D02*
D03*
X617797D02*
D03*
D21*
X270776Y355550D02*
D03*
Y342850D02*
D03*
Y330150D02*
D03*
Y317450D02*
D03*
X322776Y355550D02*
D03*
Y342850D02*
D03*
Y330150D02*
D03*
Y317450D02*
D03*
X326409Y563187D02*
D03*
Y575887D02*
D03*
Y588587D02*
D03*
Y601287D02*
D03*
X274410Y563187D02*
D03*
Y575887D02*
D03*
Y588587D02*
D03*
Y601287D02*
D03*
X328605Y87700D02*
D03*
Y100400D02*
D03*
Y113100D02*
D03*
Y125800D02*
D03*
X276605Y87700D02*
D03*
Y100400D02*
D03*
Y113100D02*
D03*
Y125800D02*
D03*
D22*
X40000Y40000D02*
D03*
X760000Y900000D02*
D03*
Y40000D02*
D03*
X40000Y900000D02*
D03*
D23*
X440000Y859600D02*
D03*
X495000D02*
D03*
X545000D02*
D03*
D24*
X440000Y910400D02*
D03*
Y885000D02*
D03*
X495000Y910400D02*
D03*
Y885000D02*
D03*
X545000Y910400D02*
D03*
Y885000D02*
D03*
X110000Y110000D02*
D03*
Y140000D02*
D03*
X140000Y110000D02*
D03*
Y140000D02*
D03*
X153000Y858000D02*
D03*
X127000D02*
D03*
D25*
X708500Y326050D02*
D03*
Y351450D02*
D03*
Y376850D02*
D03*
D26*
Y300650D02*
D03*
D27*
X67000Y125000D02*
D03*
D28*
X197300Y858780D02*
D03*
D29*
X222700D02*
D03*
X273500D02*
D03*
X298900D02*
D03*
X324300D02*
D03*
D30*
X460750Y47000D02*
D03*
X164000Y353000D02*
D03*
X163500Y583000D02*
D03*
X175500Y600500D02*
D03*
X140000Y313750D02*
D03*
X193250Y147000D02*
D03*
X167250Y323500D02*
D03*
X553250Y500000D02*
D03*
X552750Y24250D02*
D03*
X376750Y27750D02*
D03*
X377250Y604250D02*
D03*
X553000Y258000D02*
D03*
X352750Y502750D02*
D03*
X353000Y258000D02*
D03*
X280750Y35750D02*
D03*
X326250Y61000D02*
D03*
X260750Y241500D02*
D03*
X280500Y267250D02*
D03*
X223000Y159000D02*
D03*
X213250Y387250D02*
D03*
X720000Y820000D02*
D03*
X550500Y709000D02*
D03*
X378500Y659000D02*
D03*
X261500Y694750D02*
D03*
X303750Y275000D02*
D03*
X280500Y512250D02*
D03*
X280750Y714000D02*
D03*
X261500Y444500D02*
D03*
X225750Y537000D02*
D03*
X510250Y691750D02*
D03*
X345250Y698750D02*
D03*
X310000Y521750D02*
D03*
X323750Y301771D02*
D03*
X324250Y763500D02*
D03*
X377000Y358000D02*
D03*
X377500Y128250D02*
D03*
X224500Y72250D02*
D03*
X323813Y542169D02*
D03*
X299000Y42250D02*
D03*
M02*
