G04*
G04 #@! TF.GenerationSoftware,Altium Limited,Altium Designer,24.0.1 (36)*
G04*
G04 Layer_Physical_Order=2*
G04 Layer_Color=16711680*
%FSLAX44Y44*%
%MOMM*%
G71*
G04*
G04 #@! TF.SameCoordinates,65C3A42A-BC2E-465B-ACE7-51DAAD075D16*
G04*
G04*
G04 #@! TF.FilePolarity,Positive*
G04*
G01*
G75*
%ADD11C,0.5000*%
%ADD31C,0.2032*%
%ADD39C,0.2540*%
%ADD40C,0.3500*%
%ADD42C,1.0000*%
%ADD43C,0.6000*%
%ADD44C,5.0000*%
%ADD45R,1.8000X1.8000*%
%ADD46C,1.8000*%
%ADD47C,2.0000*%
%ADD48R,2.0000X2.0000*%
%ADD49R,1.5750X1.5750*%
%ADD50C,1.5750*%
%ADD51C,0.6000*%
D11*
X177000Y147000D02*
X177500Y147500D01*
Y339500D01*
X164000Y353000D02*
X177500Y339500D01*
X163500Y353771D02*
Y582729D01*
Y353771D02*
X164000Y353271D01*
Y353000D02*
Y353271D01*
X125960Y125960D02*
Y282210D01*
X167250Y323500D01*
X140000Y581250D02*
X159250Y600500D01*
X175500D01*
X140000Y313750D02*
Y581250D01*
X177000Y147000D02*
X193250D01*
X140000Y110000D02*
X177000Y147000D01*
X110000Y110000D02*
X125960Y125960D01*
D31*
X755136Y928139D02*
G03*
X788556Y900000I4864J-28139D01*
G01*
D02*
G03*
X764864Y928139I-28556J0D01*
G01*
X546294Y896946D02*
G03*
X558516Y910400I-1294J13454D01*
G01*
D02*
G03*
X543706Y896946I-13516J0D01*
G01*
X557016Y885000D02*
G03*
X546294Y896946I-12016J0D01*
G01*
X543706D02*
G03*
X557016Y885000I1294J-11946D01*
G01*
X559266Y648750D02*
G03*
X557497Y653011I-6016J0D01*
G01*
X559266Y648750D02*
G03*
X557504Y653004I-6016J0D01*
G01*
X514511Y695997D02*
G03*
X510250Y697766I-4261J-4247D01*
G01*
X514511Y695997D02*
G03*
X510250Y697766I-4261J-4247D01*
G01*
X559016Y498284D02*
G03*
X559266Y500000I-5766J1716D01*
G01*
X547234Y501466D02*
G03*
X546984Y499750I5766J-1716D01*
G01*
X547234Y501466D02*
G03*
X546984Y499750I5766J-1716D01*
G01*
X559016Y498284D02*
G03*
X559266Y500000I-5766J1716D01*
G01*
X559016Y498284D02*
G03*
X559266Y500000I-5766J1716D01*
G01*
X496294Y896946D02*
G03*
X508516Y910400I-1294J13454D01*
G01*
D02*
G03*
X493706Y896946I-13516J0D01*
G01*
X441294D02*
G03*
X453516Y910400I-1294J13454D01*
G01*
D02*
G03*
X438706Y896946I-13516J0D01*
G01*
X507016Y885000D02*
G03*
X496294Y896946I-12016J0D01*
G01*
X493706D02*
G03*
X507016Y885000I1294J-11946D01*
G01*
X514504Y696004D02*
G03*
X510250Y697766I-4254J-4254D01*
G01*
X452016Y885000D02*
G03*
X441294Y896946I-12016J0D01*
G01*
X438706D02*
G03*
X452016Y885000I1294J-11946D01*
G01*
X439750Y697766D02*
G03*
X435496Y696004I0J-6016D01*
G01*
X439750Y697766D02*
G03*
X435489Y695997I0J-6016D01*
G01*
X335191Y858780D02*
G03*
X335191Y858780I-10891J0D01*
G01*
X332186Y763420D02*
G03*
X316154Y763420I-8016J0D01*
G01*
X329838Y747190D02*
G03*
X332186Y752858I-5668J5668D01*
G01*
X329838Y747190D02*
G03*
X332186Y752858I-5668J5668D01*
G01*
X318312Y738984D02*
G03*
X323980Y741332I0J8016D01*
G01*
X318312Y738984D02*
G03*
X323980Y741332I0J8016D01*
G01*
X329671Y707016D02*
G03*
X324002Y704668I0J-8016D01*
G01*
X353266Y699000D02*
G03*
X345250Y707016I-8016J0D01*
G01*
X329671D02*
G03*
X324002Y704668I0J-8016D01*
G01*
X345250Y690984D02*
G03*
X353266Y699000I0J8016D01*
G01*
X318145Y698810D02*
G03*
X315797Y693142I5668J-5668D01*
G01*
X318145Y698810D02*
G03*
X315797Y693142I5668J-5668D01*
G01*
X385016Y604000D02*
G03*
X368984Y604000I-8016J0D01*
G01*
X348753Y609261D02*
G03*
X346984Y605000I4247J-4261D01*
G01*
X348746Y609254D02*
G03*
X346984Y605000I4254J-4254D01*
G01*
X331766Y541168D02*
G03*
X331829Y542169I-7953J1001D01*
G01*
X315797Y543108D02*
G03*
X315734Y542107I7953J-1001D01*
G01*
X346984Y504466D02*
G03*
X346984Y501034I5766J-1716D01*
G01*
X713802Y363337D02*
G03*
X723016Y376850I-5302J13513D01*
G01*
X721516Y351450D02*
G03*
X713802Y363337I-13016J0D01*
G01*
X723016Y376850D02*
G03*
X703198Y363337I-14516J0D01*
G01*
D02*
G03*
X705649Y338750I5302J-11887D01*
G01*
X711351D02*
G03*
X721516Y351450I-2851J12700D01*
G01*
Y326050D02*
G03*
X711351Y338750I-13016J0D01*
G01*
X712507Y313666D02*
G03*
X721516Y326050I-4007J12384D01*
G01*
X705649Y338750D02*
G03*
X704493Y313666I2851J-12700D01*
G01*
X788556Y40000D02*
G03*
X788556Y40000I-28556J0D01*
G01*
X558443Y22306D02*
G03*
X559016Y24868I-5443J2562D01*
G01*
X546984Y25966D02*
G03*
X558443Y22306I5766J-1716D01*
G01*
X368984Y128750D02*
G03*
X385016Y128750I8016J0D01*
G01*
X382766Y27750D02*
G03*
X381004Y32004I-6016J0D01*
G01*
X372496Y23496D02*
G03*
X382766Y27750I4254J4254D01*
G01*
D02*
G03*
X380997Y32011I-6016J0D01*
G01*
X372489Y23503D02*
G03*
X382766Y27750I4261J4247D01*
G01*
X346984Y51500D02*
G03*
X348746Y47246I6016J0D01*
G01*
X346984Y51500D02*
G03*
X348753Y47239I6016J0D01*
G01*
X320582Y55332D02*
G03*
X334266Y61000I5668J5668D01*
G01*
D02*
G03*
X331918Y66668I-8016J0D01*
G01*
X315734Y63500D02*
G03*
X318082Y57832I8016J0D01*
G01*
X315734Y63500D02*
G03*
X318082Y57832I8016J0D01*
G01*
X311291Y858780D02*
G03*
X311291Y858780I-12391J0D01*
G01*
X288766Y714000D02*
G03*
X272734Y714000I-8016J0D01*
G01*
X284391Y858780D02*
G03*
X284391Y858780I-10891J0D01*
G01*
X267358Y755016D02*
G03*
X261690Y752668I0J-8016D01*
G01*
X267358Y755016D02*
G03*
X261690Y752668I0J-8016D01*
G01*
X255832Y746810D02*
G03*
X253484Y741142I5668J-5668D01*
G01*
X255832Y746810D02*
G03*
X253484Y741142I5668J-5668D01*
G01*
X272734Y514236D02*
G03*
X272484Y512250I7766J-1986D01*
G01*
X288516Y510514D02*
G03*
X288766Y512500I-7766J1986D01*
G01*
X68556Y900000D02*
G03*
X44864Y928139I-28556J0D01*
G01*
X235091Y858780D02*
G03*
X235091Y858780I-12391J0D01*
G01*
X165016Y858000D02*
G03*
X165016Y858000I-12016J0D01*
G01*
X140516D02*
G03*
X140516Y858000I-13516J0D01*
G01*
X35136Y928139D02*
G03*
X68556Y900000I4864J-28139D01*
G01*
X181516Y600500D02*
G03*
X173099Y606016I-6016J0D01*
G01*
Y594984D02*
G03*
X181516Y600500I2401J5516D01*
G01*
X169016Y580599D02*
G03*
X169516Y583000I-5516J2401D01*
G01*
D02*
G03*
X157984Y580599I-6016J0D01*
G01*
X159250Y606016D02*
G03*
X155350Y604400I0J-5516D01*
G01*
X159250Y606016D02*
G03*
X155350Y604400I0J-5516D01*
G01*
X136100Y585150D02*
G03*
X134484Y581250I3900J-3900D01*
G01*
X136100Y585150D02*
G03*
X134484Y581250I3900J-3900D01*
G01*
X183016Y339500D02*
G03*
X181400Y343400I-5516J0D01*
G01*
X183016Y339500D02*
G03*
X181400Y343400I-5516J0D01*
G01*
X267168Y236582D02*
G03*
X269516Y242250I-5668J5668D01*
G01*
X267168Y236582D02*
G03*
X269516Y242250I-5668J5668D01*
G01*
X288766Y35750D02*
G03*
X288516Y37736I-8016J0D01*
G01*
X272484Y36000D02*
G03*
X274832Y30332I8016J0D01*
G01*
X272484Y36000D02*
G03*
X274832Y30332I8016J0D01*
G01*
X275082Y30082D02*
G03*
X288766Y35750I5668J5668D01*
G01*
X253484Y244885D02*
G03*
X266418Y235832I7266J-3385D01*
G01*
X190849Y141484D02*
G03*
X199266Y147000I2401J5516D01*
G01*
D02*
G03*
X190849Y152516I-6016J0D01*
G01*
X169598Y355202D02*
G03*
X169016Y356321I-5598J-2202D01*
G01*
X157997Y353394D02*
G03*
X161798Y347402I6003J-394D01*
G01*
X169452Y317902D02*
G03*
X171984Y319788I-2202J5598D01*
G01*
Y327212D02*
G03*
X161652Y325702I-4734J-3712D01*
G01*
X146016Y313750D02*
G03*
X145516Y316151I-6016J0D01*
G01*
X134484D02*
G03*
X146016Y313750I5516J-2401D01*
G01*
X122060Y286110D02*
G03*
X120444Y282210I3900J-3900D01*
G01*
X122060Y286110D02*
G03*
X120444Y282210I3900J-3900D01*
G01*
X152016Y140000D02*
G03*
X131476Y148469I-12016J0D01*
G01*
X120444Y145942D02*
G03*
X120444Y134058I-10444J-5942D01*
G01*
X131476Y131531D02*
G03*
X152016Y140000I8524J8469D01*
G01*
X129860Y122060D02*
G03*
X131476Y125960I-3900J3900D01*
G01*
X129860Y122060D02*
G03*
X131476Y125960I-3900J3900D01*
G01*
X152016Y110000D02*
G03*
X151449Y113648I-12016J0D01*
G01*
X143648Y121449D02*
G03*
X152016Y110000I-3648J-11449D01*
G01*
X122016D02*
G03*
X121449Y113648I-12016J0D01*
G01*
X113648Y121449D02*
G03*
X122016Y110000I-3648J-11449D01*
G01*
X85016Y125000D02*
G03*
X85016Y125000I-18016J0D01*
G01*
X46838Y12275D02*
G03*
X68556Y40000I-6838J27725D01*
G01*
D02*
G03*
X32847Y12354I-28556J0D01*
G01*
X789201Y928139D02*
X790000Y927340D01*
X782017Y928139D02*
X790000Y920156D01*
X776982Y922957D02*
X782164Y928139D01*
X783948Y915555D02*
X790000Y921607D01*
X780788Y919578D02*
X789348Y928139D01*
X764864D02*
X790000D01*
X774833D02*
X790000Y912972D01*
X772511Y925670D02*
X774979Y928139D01*
X788060Y905298D02*
X790000Y907238D01*
X788556Y900047D02*
X790000Y898603D01*
X787250Y908538D02*
X790000Y905788D01*
X787828Y893591D02*
X790000Y891419D01*
X788520Y898574D02*
X790000Y900054D01*
X786418Y910841D02*
X790000Y914422D01*
X786506Y889376D02*
X790000Y892870D01*
X783407Y883643D02*
X790000Y877051D01*
X786014Y888221D02*
X790000Y884235D01*
X556948Y904081D02*
X581006Y928139D01*
X710175D02*
X732123Y906191D01*
X558328Y912645D02*
X573822Y928139D01*
X702991D02*
X731446Y899684D01*
X556705Y882286D02*
X602558Y928139D01*
X556306Y917807D02*
X566637Y928139D01*
X553522Y893471D02*
X588190Y928139D01*
X552772Y921458D02*
X559453Y928139D01*
X553220Y871616D02*
X609743Y928139D01*
X556306Y889070D02*
X595374Y928139D01*
X746096D02*
X748221Y926014D01*
X767649Y928139D02*
X768538Y927250D01*
X738912Y928139D02*
X743643Y923407D01*
X731728Y928139D02*
X739741Y920125D01*
X724544Y928139D02*
X736483Y916199D01*
X717359Y928139D02*
X733904Y911594D01*
X695807Y928139D02*
X732877Y891069D01*
X602412Y928139D02*
X790000Y740551D01*
X595228Y928139D02*
X790000Y733366D01*
X609596Y928139D02*
X790000Y747735D01*
X580859Y928139D02*
X790000Y718998D01*
X588044Y928139D02*
X790000Y726182D01*
X566491Y928139D02*
X790000Y704630D01*
X559307Y928139D02*
X790000Y697445D01*
X573675Y928139D02*
X790000Y711814D01*
X557475Y915602D02*
X790000Y683077D01*
X552122Y928139D02*
X790000Y690261D01*
X558235Y907658D02*
X790000Y675893D01*
X556729Y887611D02*
X790000Y654340D01*
X780125Y879741D02*
X790000Y869866D01*
X559266Y647767D02*
X790000Y878501D01*
X557411Y653097D02*
X790000Y885686D01*
X552421Y899103D02*
X790000Y661524D01*
X556067Y902641D02*
X790000Y668708D01*
X553482Y876489D02*
X790000Y639972D01*
X556284Y880871D02*
X790000Y647156D01*
X681438Y928139D02*
X790000Y819577D01*
X674254Y928139D02*
X790000Y812393D01*
X688622Y928139D02*
X790000Y826761D01*
X659886Y928139D02*
X790000Y798024D01*
X667070Y928139D02*
X790000Y805209D01*
X557016Y861044D02*
X624111Y928139D01*
X557016Y853859D02*
X631295Y928139D01*
X557016Y868228D02*
X616927Y928139D01*
X645517D02*
X790000Y783656D01*
X652701Y928139D02*
X790000Y790840D01*
X771594Y873904D02*
X790000Y855498D01*
X766191Y872123D02*
X790000Y848314D01*
X776199Y876483D02*
X790000Y862682D01*
X638333Y928139D02*
X790000Y776472D01*
X751069Y872877D02*
X790000Y833945D01*
X623965Y928139D02*
X790000Y762103D01*
X631149Y928139D02*
X790000Y769287D01*
X616780Y928139D02*
X790000Y754919D01*
X553819Y656689D02*
X770624Y873494D01*
X547761Y923631D02*
X552269Y928139D01*
X544938D02*
X550202Y922875D01*
X539837Y922891D02*
X545085Y928139D01*
X537754D02*
X542258Y923635D01*
X549145Y896278D02*
X551319Y898452D01*
X542315Y873288D02*
X543987Y871616D01*
X549087Y873700D02*
X551171Y871616D01*
X546036D02*
X547714Y873295D01*
X538729Y898427D02*
X540871Y896284D01*
X532984Y871616D02*
X557016D01*
X538852D02*
X540930Y873694D01*
X523386Y928139D02*
X533703Y917821D01*
X530570Y928139D02*
X537241Y921467D01*
X508284Y912891D02*
X523532Y928139D01*
X509017D02*
X533027Y904129D01*
X516201Y928139D02*
X531675Y912665D01*
X507236Y904658D02*
X530716Y928139D01*
X503377Y893615D02*
X537901Y928139D01*
X506190Y917981D02*
X516348Y928139D01*
X501833D02*
X536489Y893482D01*
X506227Y889281D02*
X532509Y915563D01*
X507664Y915124D02*
X533700Y889087D01*
X507016Y868517D02*
X537593Y899094D01*
X508183Y907420D02*
X533288Y882316D01*
X507016Y861333D02*
X533265Y887582D01*
X506804Y887246D02*
X532984Y861067D01*
X502930Y871616D02*
X533942Y902628D01*
X506785Y882655D02*
X531769Y907639D01*
X505947Y902472D02*
X536803Y871616D01*
X502245Y898990D02*
X532984Y868251D01*
X508686Y697766D02*
X739059Y928139D01*
X514301Y696197D02*
X746243Y928139D01*
X517898Y692610D02*
X732324Y907036D01*
X336596Y928139D02*
X790000Y474735D01*
X343780Y928139D02*
X790000Y481919D01*
X322228Y928139D02*
X790000Y460366D01*
X315043Y928139D02*
X790000Y453182D01*
X329412Y928139D02*
X790000Y467551D01*
X300675Y928139D02*
X790000Y438814D01*
X307859Y928139D02*
X790000Y445998D01*
X535859Y674649D02*
X740422Y879212D01*
X539451Y671057D02*
X744445Y876052D01*
X532267Y678241D02*
X737043Y883018D01*
X546635Y663873D02*
X754702Y871940D01*
X543043Y667465D02*
X749159Y873582D01*
X528674Y681833D02*
X734330Y887489D01*
X525082Y685426D02*
X732385Y892729D01*
X450404Y878988D02*
X790000Y539393D01*
X503336Y876346D02*
X790000Y589682D01*
X451212Y697766D02*
X681585Y928139D01*
X458396Y697766D02*
X688769Y928139D01*
X444028Y697766D02*
X674401Y928139D01*
X472765Y697766D02*
X703137Y928139D01*
X465580Y697766D02*
X695953Y928139D01*
X331829Y614304D02*
X645664Y928139D01*
X331829Y607119D02*
X652848Y928139D01*
X331829Y621488D02*
X638479Y928139D01*
X331829Y592751D02*
X667216Y928139D01*
X331829Y599935D02*
X660032Y928139D01*
X507016Y854149D02*
X533722Y880855D01*
X532984Y847584D02*
Y871616D01*
X506205Y880661D02*
X532984Y853882D01*
X501502Y697766D02*
X731874Y928139D01*
X521490Y689018D02*
X731462Y898989D01*
X487133Y697766D02*
X717506Y928139D01*
X479949Y697766D02*
X710322Y928139D01*
X494317Y697766D02*
X724690Y928139D01*
X331829Y671777D02*
X536529Y876478D01*
X559266Y597478D02*
X790000Y828212D01*
X559266Y590294D02*
X790000Y821028D01*
X559266Y604662D02*
X790000Y835396D01*
X559266Y575925D02*
X790000Y806659D01*
X559266Y583109D02*
X790000Y813843D01*
X546466Y847584D02*
X790000Y604051D01*
X539282Y847584D02*
X790000Y596866D01*
X553651Y847584D02*
X790000Y611235D01*
X507016Y851114D02*
X790000Y568130D01*
X507016Y858298D02*
X790000Y575314D01*
X559266Y540004D02*
X790000Y770738D01*
X559266Y532820D02*
X790000Y763554D01*
X559266Y547188D02*
X790000Y777922D01*
X559266Y518451D02*
X790000Y749185D01*
X559266Y525636D02*
X790000Y756370D01*
X559266Y561557D02*
X790000Y792291D01*
X559266Y568741D02*
X790000Y799475D01*
X559266Y554372D02*
X790000Y785107D01*
X559266Y554372D02*
X790000Y785107D01*
X559266Y640583D02*
X790000Y871317D01*
X559266Y633399D02*
X790000Y864133D01*
X759684Y871446D02*
X790000Y841130D01*
X559266Y619030D02*
X790000Y849764D01*
X559266Y626215D02*
X790000Y856949D01*
X550227Y660281D02*
X761426Y871480D01*
X557016Y865771D02*
X790000Y632787D01*
X557016Y847584D02*
Y871616D01*
Y851403D02*
X790000Y618419D01*
X557016Y858587D02*
X790000Y625603D01*
X514511Y695997D02*
X557497Y653011D01*
X532984Y847584D02*
X557016D01*
X559266Y611846D02*
X790000Y842580D01*
X507159Y685734D02*
X547234Y645659D01*
X507758Y685734D02*
X547234Y646258D01*
X559266Y504083D02*
X790000Y734817D01*
X559266Y647995D02*
X790000Y417261D01*
X559266Y511267D02*
X790000Y742001D01*
X559016Y403254D02*
X790000Y634238D01*
X559266Y640811D02*
X790000Y410077D01*
X559016Y489465D02*
X790000Y720449D01*
X559016Y424807D02*
X790000Y655791D01*
X559016Y496649D02*
X790000Y727633D01*
X559016Y410438D02*
X790000Y641422D01*
X559016Y417622D02*
X790000Y648606D01*
X704665Y390850D02*
X790000Y476185D01*
X716883Y388700D02*
X790000Y461817D01*
X711949Y390950D02*
X790000Y469001D01*
X720453Y385086D02*
X790000Y454633D01*
X559266Y619258D02*
X790000Y388524D01*
X559016Y396070D02*
X790000Y627054D01*
X559266Y633627D02*
X790000Y402893D01*
X559016Y388886D02*
X790000Y619870D01*
X559266Y626442D02*
X790000Y395708D01*
X559016Y453544D02*
X790000Y684528D01*
X559016Y446359D02*
X790000Y677343D01*
X559266Y500000D02*
Y648750D01*
X559016Y431991D02*
X790000Y662975D01*
X559016Y439175D02*
X790000Y670159D01*
X559016Y482280D02*
X790000Y713264D01*
X559016Y475096D02*
X790000Y706080D01*
X547234Y501466D02*
Y646258D01*
X559016Y460728D02*
X790000Y691712D01*
X559016Y467912D02*
X790000Y698896D01*
X559266Y540232D02*
X708136Y391361D01*
X559266Y533048D02*
X702326Y389988D01*
X559266Y525863D02*
X698126Y387004D01*
X559266Y518679D02*
X695224Y382721D01*
X503361Y847584D02*
X790000Y560945D01*
X496177Y847584D02*
X790000Y553761D01*
X507016Y865482D02*
X790000Y582498D01*
X452016Y848640D02*
X790000Y510656D01*
X488993Y847584D02*
X790000Y546577D01*
X452016Y870192D02*
X790000Y532208D01*
X331829Y628672D02*
X550741Y847584D01*
X442501Y685734D02*
X547234Y581001D01*
X452016Y855824D02*
X790000Y517840D01*
X452016Y863008D02*
X790000Y525024D01*
X435187Y678679D02*
X547234Y566632D01*
X431595Y675087D02*
X547234Y559448D01*
X438779Y682271D02*
X547234Y573816D01*
X424411Y667903D02*
X547234Y545080D01*
X428003Y671495D02*
X547234Y552264D01*
X417226Y660719D02*
X547234Y530711D01*
X420819Y664311D02*
X547234Y537895D01*
X410042Y653534D02*
X547234Y516343D01*
X413634Y657127D02*
X547234Y523527D01*
X492790Y685734D02*
X547234Y631290D01*
X485606Y685734D02*
X547234Y624106D01*
X499974Y685734D02*
X547234Y638474D01*
X471237Y685734D02*
X547234Y609738D01*
X478422Y685734D02*
X547234Y616922D01*
X331829Y657409D02*
X532984Y858564D01*
X331829Y650225D02*
X532984Y851380D01*
X331829Y664593D02*
X532984Y865749D01*
X331829Y635856D02*
X543556Y847584D01*
X331829Y643041D02*
X536372Y847584D01*
X456869Y685734D02*
X547234Y595369D01*
X449685Y685734D02*
X547234Y588185D01*
X464053Y685734D02*
X547234Y602553D01*
X385016Y509438D02*
X534535Y658957D01*
X385016Y516623D02*
X530943Y662549D01*
X385016Y538175D02*
X520167Y673326D01*
X385016Y545359D02*
X516574Y676918D01*
X385016Y523807D02*
X527351Y666141D01*
X385016Y530991D02*
X523759Y669734D01*
X445888Y847584D02*
X790000Y503472D01*
X402858Y646350D02*
X547234Y501974D01*
X406450Y649942D02*
X547234Y509159D01*
X431519Y847584D02*
X790000Y489103D01*
X438703Y847584D02*
X790000Y496287D01*
X385016Y473517D02*
X547234Y635735D01*
X385016Y466333D02*
X547234Y628551D01*
X385016Y480701D02*
X547234Y642919D01*
X385016Y451965D02*
X547234Y614183D01*
X385016Y459149D02*
X547234Y621367D01*
X385016Y408859D02*
X547234Y571077D01*
X385016Y401675D02*
X547234Y563893D01*
X385016Y416044D02*
X547234Y578262D01*
X385016Y387307D02*
X547234Y549525D01*
X385016Y394491D02*
X547234Y556709D01*
X385016Y437596D02*
X547234Y599814D01*
X385016Y444780D02*
X547234Y606998D01*
X385016Y423228D02*
X547234Y585446D01*
X385016Y430412D02*
X547234Y592630D01*
X399266Y642758D02*
X546984Y495040D01*
X395674Y639166D02*
X546984Y487856D01*
X385016Y487886D02*
X545311Y648181D01*
X388490Y631982D02*
X546984Y473488D01*
X392082Y635574D02*
X546984Y480672D01*
X385016Y495070D02*
X541719Y651773D01*
X384898Y628390D02*
X546984Y466303D01*
X385016Y502254D02*
X538127Y655365D01*
X377713Y621205D02*
X546984Y451935D01*
X381306Y624798D02*
X546984Y459119D01*
X385016Y570798D02*
X546984Y408830D01*
X385016Y563613D02*
X546984Y401645D01*
X385016Y577982D02*
X546984Y416014D01*
X385016Y549245D02*
X546984Y387277D01*
X385016Y556429D02*
X546984Y394461D01*
X385016Y599534D02*
X546984Y437566D01*
X384189Y607545D02*
X546984Y444751D01*
X385016Y585166D02*
X546984Y423198D01*
X385016Y592350D02*
X546984Y430382D01*
X489322Y922666D02*
X494795Y928139D01*
X494649D02*
X499724Y923064D01*
X487464Y928139D02*
X492020Y923583D01*
X480280Y928139D02*
X487072Y921347D01*
X473096Y928139D02*
X483590Y917645D01*
X458728Y928139D02*
X483395Y903471D01*
X451543Y928139D02*
X486346Y893336D01*
X465912Y928139D02*
X481635Y912415D01*
X450433Y890961D02*
X487611Y928139D01*
X444359D02*
X483625Y888873D01*
X502601Y921576D02*
X509164Y928139D01*
X497520Y923679D02*
X501979Y928139D01*
X498932Y896354D02*
X500742Y898164D01*
X488071Y898795D02*
X490661Y896205D01*
X437175Y928139D02*
X441479Y923835D01*
X440280Y923913D02*
X444506Y928139D01*
X429991D02*
X435124Y923006D01*
X450108Y919373D02*
X458874Y928139D01*
X446042Y922490D02*
X451690Y928139D01*
X415622D02*
X427718Y916043D01*
X422807Y928139D02*
X430719Y920226D01*
X408438Y928139D02*
X426488Y910089D01*
X401254Y928139D02*
X433988Y895404D01*
X394070Y928139D02*
X430223Y891985D01*
X452764Y914845D02*
X466058Y928139D01*
X453342Y908238D02*
X473243Y928139D01*
X447032Y894744D02*
X480427Y928139D01*
X453435Y911879D02*
X483382Y881931D01*
X488562Y871616D02*
X490719Y873773D01*
X452606Y905524D02*
X486513Y871616D01*
X452016Y870991D02*
X483824Y902799D01*
X452016Y863807D02*
X487419Y899210D01*
X449826Y901119D02*
X482984Y867961D01*
X452016Y849438D02*
X483646Y881068D01*
X452016Y856623D02*
X483355Y887961D01*
X498873Y873625D02*
X500882Y871616D01*
X495746D02*
X497345Y873215D01*
X491931Y873382D02*
X493698Y871616D01*
X507016Y847584D02*
Y871616D01*
X482984Y847584D02*
X507016D01*
X482984Y871616D02*
X507016D01*
X439750Y697766D02*
X510250D01*
X385016Y581280D02*
X489470Y685734D01*
X452011Y885354D02*
X482734Y916078D01*
X445457Y871616D02*
X481721Y907880D01*
X446985Y875223D02*
X450592Y871616D01*
X452008Y884569D02*
X482984Y853593D01*
X445643Y898118D02*
X482984Y860777D01*
X386885Y928139D02*
X428134Y886891D01*
X441891Y873134D02*
X443408Y871616D01*
X431088D02*
X434039Y874567D01*
X450592Y871616D02*
X452016Y870192D01*
Y847584D02*
Y871616D01*
X438273D02*
X439646Y872989D01*
X482984Y847584D02*
Y871616D01*
X427984D02*
X452016D01*
X427984Y847584D02*
Y871616D01*
Y847584D02*
X452016D01*
X365333Y928139D02*
X427984Y865488D01*
X358149Y928139D02*
X427984Y858303D01*
X334828Y861567D02*
X401400Y928139D01*
X350964D02*
X427984Y851119D01*
X333663Y853217D02*
X408585Y928139D01*
X320804Y869095D02*
X379848Y928139D01*
X327939Y869045D02*
X387032Y928139D01*
X306161Y868820D02*
X365479Y928139D01*
X332275Y866197D02*
X394216Y928139D01*
X309583Y865058D02*
X372664Y928139D01*
X372517D02*
X429040Y871616D01*
X379701Y928139D02*
X436224Y871616D01*
X331961Y765304D02*
X427984Y861327D01*
X338330Y707016D02*
X482984Y851669D01*
X332186Y758345D02*
X427984Y854143D01*
X323711Y771423D02*
X430256Y877968D01*
X329163Y769691D02*
X427984Y868512D01*
X331949Y750924D02*
X428609Y847584D01*
X300120Y755016D02*
X428145Y883041D01*
X316154Y756178D02*
Y763420D01*
X332186Y752858D02*
Y763420D01*
X314488Y755016D02*
X316154Y756681D01*
X301126Y870969D02*
X358295Y928139D01*
X311267Y859557D02*
X313985Y862276D01*
X307304Y755016D02*
X316167Y763879D01*
X311218Y860122D02*
X313445Y857895D01*
X323980Y741332D02*
X329838Y747190D01*
X329671Y707016D02*
X345250D01*
X314991Y755016D02*
X316154Y756178D01*
X310224Y738984D02*
X342192Y707016D01*
X303040Y738984D02*
X335008Y707016D01*
X350628Y704945D02*
X493267Y847584D01*
X353161Y700294D02*
X500451Y847584D01*
X345510Y707012D02*
X486083Y847584D01*
X335142Y857750D02*
X495127Y697766D01*
X333202Y852506D02*
X487942Y697766D01*
X331146Y707016D02*
X482984Y858854D01*
X310279Y853876D02*
X466390Y697766D01*
X307300Y849671D02*
X459206Y697766D01*
X329379Y849146D02*
X480758Y697766D01*
X323415Y847925D02*
X473574Y697766D01*
X332186Y760128D02*
X415903Y676411D01*
X367259Y627767D02*
X435489Y695997D01*
X332186Y752944D02*
X412311Y672819D01*
X383579Y608580D02*
X460733Y685734D01*
X379448Y611633D02*
X453549Y685734D01*
X302776Y847011D02*
X452021Y697766D01*
X330278Y747667D02*
X408719Y669227D01*
X326705Y744056D02*
X405127Y665635D01*
X323046Y740531D02*
X401535Y662042D01*
X352826Y696382D02*
X394350Y654858D01*
X318145Y698810D02*
X324002Y704668D01*
X317409Y738984D02*
X397942Y658450D01*
X315797Y543108D02*
Y693142D01*
X349695Y692329D02*
X390758Y651266D01*
X343856Y690984D02*
X387166Y647674D01*
X332991Y690984D02*
X345250D01*
X336672D02*
X383574Y644082D01*
X331829Y688643D02*
X379982Y640490D01*
X331829Y686146D02*
X336667Y690984D01*
X331829Y689822D02*
X332991Y690984D01*
X331829Y678962D02*
X343851Y690984D01*
X331829Y542169D02*
Y689822D01*
X385016Y566912D02*
X503838Y685734D01*
X442242D02*
X507758D01*
X385016Y574096D02*
X496654Y685734D01*
X385016Y552544D02*
X512982Y680510D01*
X385016Y559728D02*
X509390Y684102D01*
X359016Y598386D02*
X446364Y685734D01*
X385016Y602833D02*
X467917Y685734D01*
X375761Y619253D02*
X442242Y685734D01*
X385016Y588465D02*
X482285Y685734D01*
X385016Y595649D02*
X475101Y685734D01*
X374121Y617613D02*
X380545Y611189D01*
X370529Y614021D02*
X373392Y611158D01*
X366937Y610429D02*
X369814Y607552D01*
X359016Y519359D02*
X368984Y529327D01*
X359016Y602508D02*
X375741Y619233D01*
X359016Y569649D02*
X368984Y579617D01*
X359016Y562465D02*
X368984Y572433D01*
X359016Y575245D02*
X368984Y565277D01*
X359753Y603245D02*
X368984Y594014D01*
X359016Y582429D02*
X368984Y572461D01*
X363345Y606837D02*
X368984Y601198D01*
X359016Y555280D02*
X368984Y565248D01*
X359016Y568061D02*
X368984Y558093D01*
X359016Y596798D02*
X368984Y586830D01*
X359016Y584017D02*
X368984Y593985D01*
X359016Y591202D02*
X368984Y601170D01*
X359016Y576833D02*
X368984Y586801D01*
X359016Y589613D02*
X368984Y579645D01*
X359016Y533728D02*
X368984Y543696D01*
X359016Y539324D02*
X368984Y529356D01*
X359016Y546508D02*
X368984Y536540D01*
X359016Y532140D02*
X368984Y522172D01*
X359016Y526544D02*
X368984Y536512D01*
X359016Y548096D02*
X368984Y558064D01*
X359016Y560877D02*
X368984Y550909D01*
X359016Y540912D02*
X368984Y550880D01*
X359016Y553692D02*
X368984Y543724D01*
X359016Y425965D02*
X368984Y435933D01*
X359016Y431562D02*
X368984Y421594D01*
X359016Y438745D02*
X368984Y428777D01*
X359016Y424377D02*
X368984Y414409D01*
X359016Y418780D02*
X368984Y428748D01*
X359016Y453113D02*
X368984Y443145D01*
X359016Y440333D02*
X368984Y450301D01*
X359016Y447517D02*
X368984Y457485D01*
X359016Y433149D02*
X368984Y443117D01*
X359016Y445929D02*
X368984Y435961D01*
X359016Y402825D02*
X368984Y392857D01*
X359016Y390043D02*
X368984Y400012D01*
X359016Y397228D02*
X368984Y407196D01*
X359016Y382859D02*
X368984Y392827D01*
X359016Y395640D02*
X368984Y385672D01*
X359016Y417193D02*
X368984Y407225D01*
X359016Y411596D02*
X368984Y421564D01*
X359016Y410009D02*
X368984Y400041D01*
X359016Y404412D02*
X368984Y414380D01*
X359016Y503403D02*
X368984Y493435D01*
X359016Y490622D02*
X368984Y500591D01*
X359016Y497807D02*
X368984Y507775D01*
X359016Y483438D02*
X368984Y493406D01*
X359016Y496219D02*
X368984Y486251D01*
X359016Y512175D02*
X368984Y522143D01*
X359016Y517771D02*
X368984Y507803D01*
X359016Y524955D02*
X368984Y514987D01*
X359016Y510587D02*
X368984Y500619D01*
X359016Y504991D02*
X368984Y514959D01*
X359016Y461886D02*
X368984Y471854D01*
X359016Y467482D02*
X368984Y457514D01*
X359016Y474666D02*
X368984Y464698D01*
X359016Y460298D02*
X368984Y450330D01*
X359016Y454701D02*
X368984Y464669D01*
X359016Y476254D02*
X368984Y486222D01*
X359016Y489035D02*
X368984Y479066D01*
X359016Y469070D02*
X368984Y479038D01*
X359016Y481850D02*
X368984Y471882D01*
X331829Y645537D02*
X358429Y618937D01*
X331829Y638353D02*
X354837Y615345D01*
X331829Y631169D02*
X351245Y611753D01*
X348753Y609261D02*
X367239Y627747D01*
X331829Y623985D02*
X347796Y608018D01*
X331829Y681459D02*
X376390Y636898D01*
X331829Y674274D02*
X372798Y633306D01*
X331829Y667090D02*
X369206Y629713D01*
X331829Y659906D02*
X365613Y626121D01*
X331829Y652722D02*
X362021Y622529D01*
X331829Y556830D02*
X346984Y571985D01*
X331829Y549646D02*
X346984Y564801D01*
X331829Y566511D02*
X346984Y551356D01*
X331829Y564014D02*
X346984Y579170D01*
X331829Y580880D02*
X346984Y565724D01*
X331766Y513662D02*
X346984Y528880D01*
X331829Y573695D02*
X346984Y558540D01*
X331829Y588064D02*
X346984Y572909D01*
X331829Y571199D02*
X346984Y586354D01*
X331829Y578383D02*
X346984Y593538D01*
X331829Y542462D02*
X346984Y557617D01*
X331829Y559327D02*
X346984Y544172D01*
X331829Y609616D02*
X346984Y594461D01*
X331829Y602432D02*
X346984Y587277D01*
X331829Y616801D02*
X346984Y601645D01*
X331829Y595248D02*
X346984Y580093D01*
X331829Y585567D02*
X346984Y600722D01*
X331829Y544958D02*
X346984Y529803D01*
X331766Y537837D02*
X346984Y522619D01*
X331829Y552143D02*
X346984Y536987D01*
X331766Y530653D02*
X346984Y515435D01*
X331766Y520846D02*
X346984Y536064D01*
X331766Y528030D02*
X346984Y543248D01*
X331766Y535215D02*
X346984Y550433D01*
X331766Y427451D02*
X346984Y442669D01*
X331766Y437259D02*
X346984Y422041D01*
X331766Y444443D02*
X346984Y429225D01*
X331766Y430075D02*
X346984Y414857D01*
X331766Y420267D02*
X346984Y435485D01*
X331766Y458812D02*
X346984Y443593D01*
X331766Y441820D02*
X346984Y457038D01*
X331766Y449004D02*
X346984Y464222D01*
X331766Y434636D02*
X346984Y449854D01*
X331766Y451627D02*
X346984Y436409D01*
X331766Y408522D02*
X346984Y393304D01*
X331766Y391530D02*
X346984Y406748D01*
X331766Y398715D02*
X346984Y413933D01*
X331766Y384346D02*
X346984Y399564D01*
X331766Y401338D02*
X346984Y386120D01*
X331766Y422891D02*
X346984Y407673D01*
X331766Y413083D02*
X346984Y428301D01*
X331766Y415706D02*
X346984Y400488D01*
X331766Y405899D02*
X346984Y421117D01*
X331766Y492109D02*
X346984Y507327D01*
Y504466D02*
Y605000D01*
X331766Y484925D02*
X346984Y500143D01*
X331766Y501916D02*
X346984Y486698D01*
X331766Y523469D02*
X346984Y508251D01*
X331766Y506478D02*
X346984Y521696D01*
X331766Y516284D02*
X346970Y501080D01*
X331766Y509100D02*
X346984Y493882D01*
X331766Y499294D02*
X346984Y514512D01*
X331766Y463372D02*
X346984Y478591D01*
X331766Y473179D02*
X346984Y457961D01*
X331766Y480363D02*
X346984Y465145D01*
X331766Y465995D02*
X346984Y450777D01*
X331766Y456188D02*
X346984Y471406D01*
X331766Y477741D02*
X346984Y492959D01*
X331766Y494732D02*
X346984Y479514D01*
X331766Y470557D02*
X346984Y485775D01*
X331766Y487548D02*
X346984Y472330D01*
X559266Y568969D02*
X790000Y338235D01*
X559266Y561785D02*
X790000Y331050D01*
X559266Y576153D02*
X790000Y345419D01*
X559266Y547416D02*
X790000Y316682D01*
X559266Y554600D02*
X790000Y323866D01*
X559266Y604890D02*
X790000Y374156D01*
X559266Y597706D02*
X790000Y366972D01*
X559266Y612074D02*
X790000Y381340D01*
X559266Y583337D02*
X790000Y352603D01*
X559266Y590521D02*
X790000Y359787D01*
X722399Y372663D02*
X790000Y440264D01*
X721452Y350164D02*
X790000Y418712D01*
X722648Y380097D02*
X790000Y447449D01*
X720875Y313666D02*
X790000Y382791D01*
X721292Y328452D02*
X790000Y397159D01*
X720528Y356424D02*
X790000Y425896D01*
X715498Y337025D02*
X790000Y411527D01*
X717638Y360718D02*
X790000Y433080D01*
X720024Y319998D02*
X790000Y389975D01*
X719166Y333510D02*
X790000Y404343D01*
X714371Y363574D02*
X715561Y362384D01*
X559266Y511495D02*
X693984Y376777D01*
X559266Y504311D02*
X701290Y362287D01*
X701629Y340396D02*
X703826Y338198D01*
X717848Y316992D02*
X721174Y313666D01*
X700079Y335975D02*
X703526Y339422D01*
X695484Y313666D02*
X704493D01*
X699323D02*
X701040Y315384D01*
X721638Y370676D02*
X790000Y302314D01*
X721516Y299938D02*
X790000Y368422D01*
X723011Y376486D02*
X790000Y309498D01*
Y8044D02*
Y928139D01*
X721516Y292754D02*
X790000Y361238D01*
X559016Y368061D02*
X790000Y137077D01*
X718653Y366476D02*
X790000Y295129D01*
X721516Y307122D02*
X790000Y375606D01*
X559016Y123070D02*
X790000Y354054D01*
X559016Y360877D02*
X790000Y129893D01*
X721516Y298955D02*
X790000Y230471D01*
X721516Y291771D02*
X790000Y223287D01*
X721516Y306140D02*
X790000Y237656D01*
X559016Y101517D02*
X790000Y332501D01*
X559016Y339324D02*
X790000Y108340D01*
X559016Y115885D02*
X790000Y346870D01*
X559016Y353692D02*
X790000Y122708D01*
X559016Y108701D02*
X790000Y339685D01*
X559016Y346508D02*
X790000Y115524D01*
X721355Y349406D02*
X790000Y280761D01*
X719337Y344240D02*
X790000Y273577D01*
X719434Y358511D02*
X790000Y287945D01*
X715751Y340641D02*
X790000Y266393D01*
X559016Y202096D02*
X699231Y342312D01*
X559016Y230833D02*
X696650Y368466D01*
X559016Y223649D02*
X700264Y364897D01*
X559016Y238017D02*
X694400Y373401D01*
X559016Y209280D02*
X696397Y346661D01*
X559016Y216465D02*
X695580Y353029D01*
X721396Y327812D02*
X790000Y259208D01*
X721516Y287634D02*
Y313666D01*
X713691D02*
X714551Y314526D01*
X721516Y313324D02*
X790000Y244840D01*
X720648Y321376D02*
X790000Y252024D01*
X712507Y313666D02*
X721516D01*
X695484Y287634D02*
Y313666D01*
X559016Y194912D02*
X698575Y334471D01*
X695484Y289067D02*
X696917Y287634D01*
X559016Y338596D02*
X790000Y569580D01*
X559016Y331412D02*
X790000Y562396D01*
X559016Y345780D02*
X790000Y576764D01*
X559016Y317043D02*
X790000Y548027D01*
X559016Y324228D02*
X790000Y555212D01*
X559016Y374517D02*
X790000Y605501D01*
X559016Y367333D02*
X790000Y598317D01*
X559016Y381701D02*
X790000Y612685D01*
X559016Y352965D02*
X790000Y583949D01*
X559016Y360149D02*
X790000Y591133D01*
X559016Y273938D02*
X790000Y504922D01*
X559016Y266754D02*
X790000Y497738D01*
X559016Y281122D02*
X790000Y512106D01*
X559016Y252386D02*
X790000Y483370D01*
X559016Y259570D02*
X790000Y490554D01*
X559016Y302675D02*
X790000Y533659D01*
X559016Y309859D02*
X790000Y540843D01*
X559016Y288307D02*
X790000Y519291D01*
X559016Y295491D02*
X790000Y526475D01*
X559016Y497377D02*
X697691Y358702D01*
X559016Y490192D02*
X695655Y353553D01*
X385016Y351386D02*
X547234Y513604D01*
X559016Y258000D02*
Y498284D01*
X385016Y344201D02*
X547234Y506419D01*
X385016Y380122D02*
X547234Y542341D01*
X385016Y372938D02*
X547234Y535156D01*
X385016Y380122D02*
X547234Y542341D01*
X385016Y358570D02*
X547234Y520788D01*
X385016Y365754D02*
X547234Y527972D01*
X559016Y454271D02*
X699621Y313666D01*
X559016Y439903D02*
X695484Y303435D01*
X559016Y447087D02*
X695484Y310619D01*
X559016Y425535D02*
X695484Y289067D01*
X559016Y432719D02*
X695484Y296251D01*
X559016Y475824D02*
X699442Y335398D01*
X559016Y483008D02*
X697446Y344579D01*
X559016Y468640D02*
X696519Y331137D01*
X559016Y461456D02*
X695531Y324940D01*
X559016Y332140D02*
X790000Y101156D01*
X559016Y94333D02*
X790000Y325317D01*
X559016Y375245D02*
X790000Y144261D01*
X559016Y87149D02*
X790000Y318133D01*
X559016Y324955D02*
X790000Y93972D01*
X559016Y403982D02*
X790000Y172998D01*
X559016Y396798D02*
X790000Y165814D01*
X559016Y411166D02*
X790000Y180182D01*
X559016Y382429D02*
X790000Y151445D01*
X559016Y389613D02*
X790000Y158629D01*
X559016Y65596D02*
X790000Y296580D01*
X559016Y296219D02*
X790000Y65235D01*
X559016Y303403D02*
X790000Y72419D01*
X559016Y289035D02*
X790000Y58050D01*
X559016Y58412D02*
X790000Y289396D01*
X559016Y79964D02*
X790000Y310949D01*
X559016Y317771D02*
X790000Y86787D01*
X559016Y72780D02*
X790000Y303764D01*
X559016Y310587D02*
X790000Y79603D01*
X559016Y418350D02*
X790000Y187366D01*
X559016Y187728D02*
X695601Y324312D01*
X559016Y245201D02*
X694500Y380685D01*
X559016Y180543D02*
X697525Y319052D01*
X559016Y173359D02*
X695484Y309827D01*
X385016Y157412D02*
X546984Y319380D01*
X385016Y319351D02*
X546984Y157383D01*
X385016Y391193D02*
X546984Y229225D01*
X385016Y312167D02*
X546984Y150199D01*
X385016Y150228D02*
X546984Y312196D01*
X559016Y158991D02*
X695484Y295459D01*
X559016Y151807D02*
X695484Y288275D01*
X559016Y166175D02*
X695484Y302643D01*
X385016Y290614D02*
X546984Y128646D01*
X385016Y297798D02*
X546984Y135830D01*
X385016Y304982D02*
X546984Y143015D01*
X385016Y143043D02*
X546984Y305012D01*
X385016Y128675D02*
X546984Y290643D01*
X385016Y135859D02*
X546984Y297827D01*
X711285Y287634D02*
X790000Y208919D01*
X704101Y287634D02*
X790000Y201735D01*
X718469Y287634D02*
X790000Y216103D01*
X603107Y9108D02*
X790000Y196001D01*
X595963Y9149D02*
X790000Y203185D01*
X567389Y9311D02*
X790000Y231922D01*
X574533Y9271D02*
X790000Y224738D01*
X560246Y9352D02*
X790000Y239106D01*
X588820Y9189D02*
X790000Y210369D01*
X581676Y9230D02*
X790000Y217554D01*
X788310Y36258D02*
X790000Y37948D01*
X787390Y31923D02*
X790000Y29314D01*
X788487Y38011D02*
X790000Y36498D01*
X785324Y26805D02*
X790000Y22129D01*
X784399Y25164D02*
X790000Y30764D01*
X610250Y9067D02*
X790000Y188817D01*
X782513Y22432D02*
X790000Y14945D01*
X624537Y8986D02*
X790000Y174449D01*
X617394Y9027D02*
X790000Y181633D01*
X755610Y68217D02*
X790000Y102606D01*
X768897Y67135D02*
X790000Y88238D01*
X762978Y68400D02*
X790000Y95422D01*
X778165Y62034D02*
X790000Y73870D01*
X773894Y64948D02*
X790000Y81054D01*
X696917Y287634D02*
X790000Y194550D01*
X743554Y63345D02*
X790000Y109791D01*
X695484Y287634D02*
X721516D01*
X559016Y202825D02*
X734311Y27530D01*
X784747Y54248D02*
X790000Y59501D01*
X786995Y49312D02*
X790000Y52317D01*
X781781Y58467D02*
X790000Y66685D01*
X788344Y43476D02*
X790000Y45133D01*
X787981Y45701D02*
X790000Y43682D01*
X674542Y8701D02*
X790000Y124159D01*
X681686Y8661D02*
X790000Y116975D01*
X667399Y8742D02*
X790000Y131343D01*
X774552Y8132D02*
X790000Y23580D01*
X779042Y18719D02*
X789715Y8046D01*
X638825Y8905D02*
X790000Y160080D01*
X645968Y8864D02*
X790000Y152896D01*
X631681Y8945D02*
X790000Y167264D01*
X660255Y8783D02*
X790000Y138527D01*
X653112Y8823D02*
X790000Y145712D01*
X781695Y8091D02*
X790000Y16396D01*
X770102Y13291D02*
X775266Y8128D01*
X767408Y8173D02*
X774837Y15601D01*
X788839Y8051D02*
X790000Y9212D01*
X774924Y15654D02*
X782491Y8087D01*
X760265Y8213D02*
X763742Y11690D01*
X753121Y8254D02*
X756524Y11656D01*
X764421Y11788D02*
X768040Y8169D01*
X757468Y11556D02*
X760815Y8210D01*
X559016Y116614D02*
X666885Y8745D01*
X559016Y109430D02*
X659660Y8786D01*
X559016Y102246D02*
X652435Y8827D01*
X688829Y8620D02*
X736655Y56446D01*
X559016Y123798D02*
X674111Y8704D01*
X559016Y145351D02*
X695787Y8580D01*
X559016Y138167D02*
X688561Y8621D01*
X559016Y130983D02*
X681336Y8663D01*
X559016Y159719D02*
X710237Y8498D01*
X559016Y152535D02*
X703012Y8539D01*
X731691Y8376D02*
X741533Y18219D01*
X738834Y8335D02*
X745752Y15253D01*
X724547Y8417D02*
X737966Y21835D01*
X747530Y14311D02*
X753589Y8251D01*
X745978Y8295D02*
X750688Y13005D01*
X695973Y8579D02*
X731783Y44390D01*
X703116Y8539D02*
X731600Y37022D01*
X717403Y8457D02*
X735052Y26106D01*
X710260Y8498D02*
X732865Y31103D01*
X559016Y274666D02*
X765701Y67981D01*
X559016Y267482D02*
X758011Y68487D01*
X559016Y260298D02*
X751924Y67390D01*
X559016Y44043D02*
X790000Y275027D01*
X559016Y253113D02*
X746805Y65325D01*
X559016Y137438D02*
X709212Y287634D01*
X559016Y130254D02*
X716396Y287634D01*
X559016Y144622D02*
X702028Y287634D01*
X559016Y281850D02*
X790000Y50866D01*
X559016Y51228D02*
X790000Y282212D01*
X559016Y245929D02*
X742432Y62513D01*
X559016Y238745D02*
X738719Y59042D01*
X559016Y231562D02*
X735654Y54924D01*
X559016Y224377D02*
X733291Y50103D01*
X559016Y217193D02*
X731788Y44421D01*
X367003Y46005D02*
X546984Y225985D01*
X363411Y49597D02*
X546984Y233169D01*
X370595Y42412D02*
X546984Y218801D01*
X385016Y204404D02*
X546984Y42436D01*
X385016Y276246D02*
X546984Y114278D01*
X385016Y269062D02*
X546984Y107093D01*
X385016Y283430D02*
X546984Y121462D01*
X385016Y254693D02*
X546984Y92725D01*
X385016Y261877D02*
X546984Y99909D01*
X359016Y88307D02*
X546984Y276275D01*
X359016Y81122D02*
X546984Y269090D01*
X359016Y95491D02*
X546984Y283459D01*
X359016Y66754D02*
X546984Y254722D01*
X359016Y73938D02*
X546984Y261906D01*
X385016Y233140D02*
X546984Y71172D01*
X385016Y225956D02*
X546984Y63988D01*
X385016Y240325D02*
X546984Y78357D01*
X385016Y211588D02*
X546984Y49620D01*
X385016Y218772D02*
X546984Y56804D01*
X359016Y59570D02*
X546984Y247538D01*
X385016Y247509D02*
X546984Y85541D01*
X374188Y38820D02*
X546984Y211617D01*
X359819Y53189D02*
X546984Y240354D01*
X559016Y181272D02*
X731913Y8375D01*
X559016Y174088D02*
X724688Y8416D01*
X559016Y166904D02*
X717463Y8457D01*
X559016Y195641D02*
X746364Y8292D01*
X559016Y188456D02*
X739139Y8334D01*
X559016Y36859D02*
X790000Y267843D01*
X559016Y29675D02*
X790000Y260659D01*
X559016Y210009D02*
X731556Y37468D01*
X553102Y9393D02*
X790000Y246291D01*
X558175Y21650D02*
X790000Y253475D01*
X559016Y51956D02*
X601857Y9115D01*
X559016Y44772D02*
X594632Y9156D01*
X559016Y37588D02*
X587407Y9197D01*
X559016Y66325D02*
X616308Y9033D01*
X559016Y59141D02*
X609082Y9074D01*
X559016Y80693D02*
X630759Y8950D01*
X559016Y73509D02*
X623533Y8992D01*
X559016Y95062D02*
X645209Y8868D01*
X559016Y87877D02*
X637984Y8909D01*
X546984Y25966D02*
Y258000D01*
X559016Y24868D02*
Y258000D01*
X385016Y190035D02*
X546984Y28067D01*
X385016Y182851D02*
X558505Y9362D01*
X385016Y175667D02*
X551280Y9403D01*
X381356Y31620D02*
X546984Y197248D01*
X382264Y25344D02*
X546984Y190064D01*
X377780Y35228D02*
X546984Y204433D01*
X381657Y10369D02*
X546984Y175696D01*
X374513Y10409D02*
X546984Y182880D01*
X555916Y19135D02*
X565730Y9321D01*
X559016Y30404D02*
X580181Y9238D01*
X558834Y23401D02*
X572956Y9280D01*
X395944Y10287D02*
X546984Y161327D01*
X388801Y10328D02*
X546984Y168511D01*
X545958Y9433D02*
X555350Y18825D01*
X538815Y9474D02*
X548937Y19596D01*
X385016Y337017D02*
X546984Y498985D01*
X385016Y498955D02*
X546984Y336987D01*
X385016Y506140D02*
X546984Y344172D01*
Y258000D02*
Y499750D01*
X385016Y463034D02*
X546984Y301066D01*
X385016Y534877D02*
X546984Y372909D01*
X385016Y527692D02*
X546984Y365724D01*
X385016Y542061D02*
X546984Y380093D01*
X385016Y513324D02*
X546984Y351356D01*
X385016Y520508D02*
X546984Y358540D01*
X385016Y272359D02*
X546984Y434327D01*
X385016Y434298D02*
X546984Y272330D01*
X385016Y441482D02*
X546984Y279514D01*
X385016Y427113D02*
X546984Y265145D01*
X385016Y265175D02*
X546984Y427143D01*
X385016Y455850D02*
X546984Y293882D01*
X385016Y286728D02*
X546984Y448696D01*
X385016Y293912D02*
X546984Y455880D01*
X385016Y279543D02*
X546984Y441511D01*
X385016Y448666D02*
X546984Y286698D01*
X385016Y477403D02*
X546984Y315435D01*
X385016Y308280D02*
X546984Y470248D01*
X385016Y315465D02*
X546984Y477433D01*
X385016Y301096D02*
X546984Y463064D01*
X385016Y470219D02*
X546984Y308251D01*
X385016Y491771D02*
X546984Y329803D01*
X385016Y322649D02*
X546984Y484617D01*
X385016Y329833D02*
X546984Y491801D01*
X385016Y484587D02*
X546984Y322619D01*
X359016Y311017D02*
X368984Y320985D01*
X359016Y287877D02*
X368984Y277909D01*
X359016Y275096D02*
X368984Y285064D01*
X359016Y282280D02*
X368984Y292248D01*
X359016Y260728D02*
X368984Y270696D01*
X359016Y273509D02*
X368984Y263541D01*
X359016Y309430D02*
X368984Y299462D01*
X359016Y303833D02*
X368984Y313801D01*
X359016Y295061D02*
X368984Y285093D01*
X359016Y296649D02*
X368984Y306617D01*
X385016Y369641D02*
X546984Y207673D01*
X385016Y200517D02*
X546984Y362485D01*
X385016Y207701D02*
X546984Y369669D01*
X385016Y193333D02*
X546984Y355301D01*
X385016Y362456D02*
X546984Y200488D01*
X385016Y419929D02*
X546984Y257961D01*
X385016Y250807D02*
X546984Y412775D01*
X385016Y257991D02*
X546984Y419959D01*
X385016Y376825D02*
X546984Y214857D01*
X385016Y214886D02*
X546984Y376854D01*
X385016Y171780D02*
X546984Y333748D01*
X385016Y333719D02*
X546984Y171751D01*
X385016Y340904D02*
X546984Y178936D01*
X385016Y326535D02*
X546984Y164567D01*
X385016Y164596D02*
X546984Y326564D01*
X385016Y186149D02*
X546984Y348117D01*
X385016Y355272D02*
X546984Y193304D01*
X385016Y178965D02*
X546984Y340933D01*
X385016Y348088D02*
X546984Y186120D01*
X385016Y398377D02*
X546984Y236409D01*
X385016Y229254D02*
X546984Y391222D01*
X385016Y236438D02*
X546984Y398406D01*
X385016Y384009D02*
X546984Y222041D01*
X385016Y222070D02*
X546984Y384038D01*
X385016Y243622D02*
X546984Y405591D01*
X385016Y405561D02*
X546984Y243594D01*
X385016Y412745D02*
X546984Y250777D01*
X385016Y128750D02*
Y604000D01*
X368984Y128750D02*
Y604000D01*
X359016Y251956D02*
X368984Y241988D01*
X359016Y239175D02*
X368984Y249143D01*
X359016Y246359D02*
X368984Y256327D01*
X359016Y231991D02*
X368984Y241959D01*
X359016Y244772D02*
X368984Y234804D01*
X359016Y253543D02*
X368984Y263512D01*
X359016Y266325D02*
X368984Y256357D01*
X359016Y259140D02*
X368984Y249172D01*
X359016Y53992D02*
Y258000D01*
Y366904D02*
X368984Y356936D01*
X359016Y354123D02*
X368984Y364090D01*
X359016Y361307D02*
X368984Y371275D01*
X359016Y359719D02*
X368984Y349751D01*
X359016Y354123D02*
X368984Y364090D01*
X359016Y375675D02*
X368984Y385643D01*
X359016Y381272D02*
X368984Y371304D01*
X359016Y388456D02*
X368984Y378488D01*
X359016Y374088D02*
X368984Y364120D01*
X359016Y368491D02*
X368984Y378459D01*
X359016Y338167D02*
X368984Y328199D01*
X359016Y325386D02*
X368984Y335354D01*
X359016Y332570D02*
X368984Y342538D01*
X359016Y318201D02*
X368984Y328170D01*
X359016Y330983D02*
X368984Y321015D01*
X359016Y352535D02*
X368984Y342567D01*
X359016Y346938D02*
X368984Y356906D01*
X359016Y345351D02*
X368984Y335383D01*
X359016Y339754D02*
X368984Y349722D01*
X331766Y372601D02*
X346984Y357383D01*
X331766Y355609D02*
X346984Y370827D01*
X331766Y362794D02*
X346984Y378012D01*
X331766Y348425D02*
X346984Y363643D01*
X331766Y365417D02*
X346984Y350199D01*
X331766Y377162D02*
X346984Y392380D01*
X331766Y386969D02*
X346984Y371751D01*
X331766Y394154D02*
X346984Y378936D01*
X331766Y379785D02*
X346984Y364567D01*
X331766Y369978D02*
X346984Y385196D01*
X331766Y326872D02*
X346984Y342090D01*
X331766Y326872D02*
X346984Y342090D01*
X331766Y343864D02*
X346984Y328646D01*
X331766Y319688D02*
X346984Y334906D01*
X331766Y336680D02*
X346984Y321462D01*
X331766Y341241D02*
X346984Y356459D01*
X331766Y358233D02*
X346984Y343015D01*
X331766Y334057D02*
X346984Y349275D01*
X331766Y351048D02*
X346984Y335830D01*
X359016Y302246D02*
X368984Y292278D01*
X359016Y289465D02*
X368984Y299433D01*
X359016Y316614D02*
X368984Y306646D01*
X359016Y267912D02*
X368984Y277880D01*
X359016Y280693D02*
X368984Y270725D01*
X359016Y323798D02*
X368984Y313830D01*
X331766Y279206D02*
X346984Y263988D01*
X331766Y269399D02*
X346984Y284617D01*
X359016Y258000D02*
Y602508D01*
X346984Y258000D02*
Y501034D01*
X331766Y257654D02*
X346984Y242436D01*
X331766Y240662D02*
X346984Y255880D01*
X331766Y247846D02*
X346984Y263064D01*
Y51500D02*
Y258000D01*
X331766Y250469D02*
X346984Y235251D01*
X331766Y272022D02*
X346984Y256804D01*
X331766Y262215D02*
X346984Y277433D01*
X331766Y264838D02*
X346984Y249620D01*
X331766Y255030D02*
X346984Y270248D01*
X331766Y315127D02*
X346984Y299909D01*
X331766Y298136D02*
X346984Y313354D01*
X331766Y305320D02*
X346984Y320538D01*
X331766Y290951D02*
X346984Y306169D01*
X331766Y307943D02*
X346984Y292725D01*
X331766Y312504D02*
X346984Y327722D01*
X331766Y322312D02*
X346984Y307094D01*
X331766Y329496D02*
X346984Y314278D01*
X331766Y301771D02*
Y541168D01*
X315734Y301771D02*
Y542107D01*
X331766Y276583D02*
X346984Y291801D01*
X331766Y286390D02*
X346984Y271172D01*
X331766Y293575D02*
X346984Y278357D01*
X331766Y243285D02*
X346984Y228067D01*
X331766Y233478D02*
X346984Y248696D01*
X331766Y283767D02*
X346984Y298985D01*
X331766Y300759D02*
X346984Y285541D01*
X331766Y78970D02*
Y301771D01*
X315734Y78950D02*
Y301771D01*
X359016Y109859D02*
X371803Y122647D01*
X359016Y151377D02*
X368984Y141409D01*
X385016Y197219D02*
X546984Y35251D01*
X359016Y102675D02*
X377075Y120734D01*
X359016Y165746D02*
X368984Y155778D01*
X359016Y152964D02*
X368984Y162933D01*
X359016Y160149D02*
X368984Y170117D01*
X359016Y145780D02*
X368984Y155748D01*
X359016Y158561D02*
X368984Y148593D01*
X382729Y27085D02*
X399548Y10267D01*
X379965Y22665D02*
X392322Y10308D01*
X359016Y53992D02*
X380997Y32011D01*
X367370Y10450D02*
X379156Y22236D01*
X360226Y10491D02*
X372880Y23144D01*
X359016Y216035D02*
X368984Y206067D01*
X359016Y203254D02*
X368984Y213222D01*
X359016Y210438D02*
X368984Y220406D01*
X359016Y196070D02*
X368984Y206038D01*
X359016Y208851D02*
X368984Y198883D01*
X359016Y224807D02*
X368984Y234775D01*
X359016Y230404D02*
X368984Y220436D01*
X359016Y237588D02*
X368984Y227620D01*
X359016Y223219D02*
X368984Y213251D01*
X359016Y217623D02*
X368984Y227591D01*
X359016Y174517D02*
X368984Y184485D01*
X359016Y180114D02*
X368984Y170146D01*
X359016Y187298D02*
X368984Y177330D01*
X359016Y172930D02*
X368984Y162962D01*
X359016Y167333D02*
X368984Y177301D01*
X359016Y188886D02*
X368984Y198854D01*
X359016Y201667D02*
X368984Y191699D01*
X359016Y181701D02*
X368984Y191669D01*
X359016Y194482D02*
X368984Y184515D01*
X445949Y10003D02*
X546984Y111038D01*
X453092Y9962D02*
X546984Y103854D01*
X438805Y10043D02*
X546984Y118222D01*
X467379Y9881D02*
X546984Y89485D01*
X460236Y9921D02*
X546984Y96669D01*
X410231Y10206D02*
X546984Y146959D01*
X417375Y10165D02*
X546984Y139775D01*
X403088Y10247D02*
X546984Y154143D01*
X431662Y10084D02*
X546984Y125406D01*
X424518Y10125D02*
X546984Y132590D01*
X510241Y9637D02*
X546984Y46380D01*
X517384Y9596D02*
X546984Y39196D01*
X503097Y9677D02*
X546984Y53564D01*
X524528Y9555D02*
X546984Y32011D01*
X531671Y9515D02*
X546743Y24587D01*
X481666Y9799D02*
X546984Y75117D01*
X474523Y9840D02*
X546984Y82301D01*
X495954Y9718D02*
X546984Y60748D01*
X488810Y9759D02*
X546984Y67933D01*
X385016Y146930D02*
X522378Y9567D01*
X385016Y139746D02*
X515153Y9609D01*
X385016Y132562D02*
X507928Y9650D01*
X385016Y161298D02*
X536829Y9485D01*
X385016Y154114D02*
X529604Y9526D01*
X381253Y121956D02*
X493477Y9732D01*
X375050Y120975D02*
X486252Y9773D01*
X359016Y122640D02*
X471801Y9855D01*
X385016Y168482D02*
X544054Y9444D01*
X384492Y125901D02*
X500702Y9691D01*
X359016Y72351D02*
X421223Y10143D01*
X359016Y65167D02*
X413998Y10185D01*
X359016Y57983D02*
X406773Y10226D01*
X359016Y86719D02*
X435674Y10061D01*
X359016Y79535D02*
X428449Y10102D01*
X359016Y101088D02*
X450125Y9979D01*
X359016Y93904D02*
X442900Y10020D01*
X359016Y115456D02*
X464576Y9897D01*
X359016Y108272D02*
X457350Y9938D01*
X331766Y149890D02*
X346984Y134672D01*
X359016Y138596D02*
X368984Y148564D01*
X331766Y140083D02*
X346984Y155301D01*
X359016Y144193D02*
X368984Y134225D01*
X331766Y132899D02*
X346984Y148117D01*
X331766Y154451D02*
X346984Y169669D01*
X331766Y164259D02*
X346984Y149041D01*
X331766Y171443D02*
X346984Y156225D01*
X331766Y157075D02*
X346984Y141857D01*
X331766Y147267D02*
X346984Y162485D01*
X359016Y137009D02*
X369225Y126800D01*
X359016Y124228D02*
X368984Y134196D01*
X359016Y131412D02*
X368984Y141380D01*
X359016Y117044D02*
X369142Y127169D01*
X331766Y128338D02*
X346984Y113120D01*
X331766Y125715D02*
X346984Y140933D01*
X331766Y142706D02*
X346984Y127488D01*
X331766Y118530D02*
X346984Y133748D01*
X331766Y135522D02*
X346984Y120304D01*
X331766Y204741D02*
X346984Y219959D01*
X331766Y214548D02*
X346984Y199330D01*
X331766Y221733D02*
X346984Y206514D01*
X331766Y207364D02*
X346984Y192146D01*
X331766Y197557D02*
X346984Y212775D01*
X331766Y236101D02*
X346984Y220883D01*
X331766Y219109D02*
X346984Y234327D01*
X331766Y226294D02*
X346984Y241511D01*
X331766Y211925D02*
X346984Y227143D01*
X331766Y228917D02*
X346984Y213699D01*
X331766Y185812D02*
X346984Y170593D01*
X331766Y168820D02*
X346984Y184038D01*
X331766Y176004D02*
X346984Y191222D01*
X331766Y161636D02*
X346984Y176854D01*
X331766Y178627D02*
X346984Y163409D01*
X331766Y200180D02*
X346984Y184962D01*
X331766Y190372D02*
X346984Y205590D01*
X331766Y192996D02*
X346984Y177778D01*
X331766Y183188D02*
X346984Y198406D01*
X332401Y55860D02*
X377872Y10390D01*
X331766Y70864D02*
X346984Y55646D01*
X359016Y129825D02*
X479026Y9814D01*
X334264Y61182D02*
X385097Y10349D01*
X331766Y121154D02*
X346984Y105936D01*
X331766Y104162D02*
X346984Y119380D01*
X331766Y111346D02*
X346984Y126564D01*
X327918Y53159D02*
X370646Y10431D01*
X303078Y10816D02*
X346984Y54722D01*
X348753Y47239D02*
X372489Y23503D01*
X338796Y10613D02*
X362088Y33905D01*
X353083Y10531D02*
X369272Y26720D01*
X345939Y10572D02*
X365680Y30312D01*
X317365Y10735D02*
X351311Y44681D01*
X310222Y10775D02*
X347845Y48399D01*
X331652Y10653D02*
X358495Y37497D01*
X324509Y10694D02*
X354903Y41089D01*
X331766Y92417D02*
X346984Y77199D01*
X331766Y75425D02*
X346984Y90643D01*
X331766Y82609D02*
X346984Y97827D01*
X331766Y68241D02*
X346984Y83459D01*
X331766Y85232D02*
X346984Y70015D01*
X331766Y96978D02*
X346984Y112196D01*
X331766Y106785D02*
X346984Y91567D01*
X331766Y113969D02*
X346984Y98751D01*
X331766Y99601D02*
X346984Y84383D01*
X331766Y89794D02*
X346984Y105012D01*
X331766Y78048D02*
X346984Y62830D01*
X333947Y63238D02*
X346984Y76275D01*
X331766Y66820D02*
Y78950D01*
X315734Y63500D02*
Y78930D01*
X318082Y57832D02*
X320582Y55332D01*
X292131Y869159D02*
X351111Y928139D01*
X285751Y755016D02*
X431027Y900292D01*
X281717Y865928D02*
X343927Y928139D01*
X279122D02*
X509495Y697766D01*
X292936Y755016D02*
X435555Y897636D01*
X277510Y868906D02*
X336743Y928139D01*
X271383Y755016D02*
X426487Y910120D01*
X270734Y869314D02*
X329558Y928139D01*
X271938D02*
X502311Y697766D01*
X278567Y755016D02*
X427910Y904358D01*
X288672Y738984D02*
X323495Y704161D01*
X295856Y738984D02*
X328000Y706840D01*
X288766Y707741D02*
X320246Y739221D01*
X295827Y846776D02*
X444837Y697766D01*
X288766Y700557D02*
X435793Y847584D01*
X282609Y852810D02*
X437934Y697485D01*
X281488Y738984D02*
X319903Y700569D01*
X270678Y738984D02*
X318312D01*
X278908Y849327D02*
X433863Y694371D01*
X274303Y738984D02*
X316616Y696672D01*
X284377Y858226D02*
X286896Y855707D01*
X284129Y861156D02*
X288521Y865549D01*
X269516Y731596D02*
X276904Y738984D01*
X269516Y737822D02*
X270678Y738984D01*
X269516Y717228D02*
X291272Y738984D01*
X269516Y724412D02*
X284088Y738984D01*
X286371Y719715D02*
X305641Y738984D01*
X288718Y714877D02*
X312825Y738984D01*
X281457Y721985D02*
X298456Y738984D01*
X269516Y695675D02*
X272734Y698893D01*
X269516Y710044D02*
X272734Y713262D01*
X269516Y715034D02*
X272734Y711816D01*
X269516Y707850D02*
X272734Y704632D01*
X269516Y694750D02*
Y737822D01*
X288766Y686188D02*
X450162Y847584D01*
X288766Y695785D02*
X315797Y668754D01*
X288766Y702969D02*
X315797Y675938D01*
X293491Y928139D02*
X790000Y431629D01*
X288766Y664636D02*
X315797Y691666D01*
X288766Y679004D02*
X486385Y876623D01*
X288766Y693373D02*
X442977Y847584D01*
X273156Y847895D02*
X430271Y690779D01*
X286306Y928139D02*
X790000Y424445D01*
X288766Y671820D02*
X482984Y866038D01*
X288766Y635899D02*
X315797Y662930D01*
X288766Y659864D02*
X315797Y632833D01*
X288766Y667048D02*
X315797Y640017D01*
X288766Y652679D02*
X315797Y625648D01*
X288766Y628715D02*
X315797Y655745D01*
X288766Y650267D02*
X315797Y677298D01*
X288766Y688600D02*
X315797Y661570D01*
X288766Y643083D02*
X315797Y670114D01*
X288766Y674232D02*
X315797Y647201D01*
X288766Y710153D02*
X315797Y683122D01*
X288766Y657451D02*
X315797Y684482D01*
X269516Y681307D02*
X272734Y684525D01*
X288766Y512500D02*
Y714000D01*
X272734Y514236D02*
Y714000D01*
X269516Y736587D02*
X315797Y690306D01*
X269516Y688491D02*
X272734Y691709D01*
X269516Y693482D02*
X272734Y690264D01*
X269516Y686298D02*
X272734Y683080D01*
X269516Y444500D02*
Y694750D01*
X288766Y681416D02*
X315797Y654385D01*
X269516Y659754D02*
X272734Y662972D01*
X269516Y664745D02*
X272734Y661527D01*
X269516Y652570D02*
X272734Y655788D01*
X269516Y657561D02*
X272734Y654343D01*
X269516Y674123D02*
X272734Y677341D01*
X269516Y679113D02*
X272734Y675895D01*
X269516Y666938D02*
X272734Y670156D01*
X269516Y671929D02*
X272734Y668711D01*
X257570Y928139D02*
X318026Y867682D01*
X264754Y928139D02*
X323270Y869622D01*
X243201Y928139D02*
X300242Y871098D01*
X262723Y753540D02*
X437322Y928139D01*
X250385D02*
X314666Y863859D01*
X232215Y866717D02*
X293637Y928139D01*
X236017D02*
X293996Y870159D01*
X228833Y928139D02*
X289791Y867180D01*
X234305Y854438D02*
X308006Y928139D01*
X234669Y861986D02*
X300821Y928139D01*
X235004Y857310D02*
X321379Y770934D01*
X233094Y852035D02*
X317407Y767723D01*
X229514Y848431D02*
X316154Y761792D01*
X224272Y846489D02*
X315368Y755393D01*
X267358Y755016D02*
X314991D01*
X44864Y928139D02*
X755136D01*
X201319Y847889D02*
X294192Y755016D01*
X208191Y855386D02*
X308561Y755016D01*
X208191Y848202D02*
X301377Y755016D01*
X222295Y871164D02*
X279269Y928139D01*
X228199Y869884D02*
X286453Y928139D01*
X214464D02*
X272946Y869657D01*
X221649Y928139D02*
X287131Y862656D01*
X208191Y864245D02*
X272085Y928139D01*
X206433Y869671D02*
X264900Y928139D01*
X207280D02*
X267530Y867889D01*
X199249Y869671D02*
X257716Y928139D01*
X200096D02*
X264047Y864188D01*
X192912Y928139D02*
X262614Y858436D01*
X194135Y847889D02*
X287008Y755016D01*
X186951Y847889D02*
X279824Y755016D01*
X163013Y864643D02*
X272640Y755016D01*
X164790Y855681D02*
X265641Y754830D01*
X162563Y850724D02*
X261154Y752133D01*
X158688Y847415D02*
X257562Y748541D01*
X178543Y928139D02*
X423087Y683595D01*
X185728Y928139D02*
X426679Y687187D01*
X171359Y928139D02*
X419495Y680003D01*
X10000Y551107D02*
X314035Y855141D01*
X10000Y579843D02*
X286711Y856554D01*
X10000Y615765D02*
X322374Y928139D01*
X10000Y522370D02*
X415769Y928139D01*
X10000Y622949D02*
X315190Y928139D01*
X10000Y508001D02*
X430137Y928139D01*
X10000Y515186D02*
X422953Y928139D01*
X269516Y729403D02*
X277563Y721355D01*
X269516Y722219D02*
X273778Y717956D01*
X269516Y700666D02*
X272734Y697448D01*
X10000Y558291D02*
X298123Y846413D01*
X10000Y565475D02*
X292622Y848097D01*
X10000Y543922D02*
X316883Y850805D01*
X10000Y572659D02*
X288860Y851519D01*
X10000Y529554D02*
X329863Y849417D01*
X10000Y536738D02*
X321513Y848252D01*
X152935Y845984D02*
X254285Y744634D01*
X10000Y816498D02*
X253484Y573014D01*
X10000Y823682D02*
X253484Y580198D01*
X10000Y802129D02*
X253484Y558645D01*
X10000Y809314D02*
X253484Y565830D01*
X10000Y601396D02*
X263374Y854770D01*
X10000Y594212D02*
X266352Y850563D01*
X10000Y608580D02*
X262966Y861546D01*
X10000Y587028D02*
X271124Y848151D01*
X10000Y830866D02*
X253484Y587382D01*
X255832Y746810D02*
X261690Y752668D01*
X269516Y702859D02*
X272734Y706077D01*
X169154Y580945D02*
X253484Y665275D01*
X10000Y794945D02*
X253484Y551461D01*
X169016Y573623D02*
X253484Y658091D01*
X10000Y500817D02*
X254960Y745777D01*
X10000Y780577D02*
X253484Y537094D01*
X288766Y599978D02*
X315797Y627009D01*
X288766Y623942D02*
X315797Y596912D01*
X288766Y631127D02*
X315797Y604096D01*
X288766Y616758D02*
X315797Y589727D01*
X288766Y592794D02*
X315797Y619824D01*
X288766Y645495D02*
X315797Y618464D01*
X288766Y614346D02*
X315797Y641377D01*
X288766Y621530D02*
X315797Y648561D01*
X288766Y607162D02*
X315797Y634193D01*
X288766Y638311D02*
X315797Y611280D01*
X288766Y542504D02*
X315797Y569535D01*
X288766Y535320D02*
X315797Y562351D01*
X288766Y573653D02*
X315797Y546622D01*
X288766Y520951D02*
X315797Y547982D01*
X288766Y528136D02*
X315797Y555167D01*
X288766Y609574D02*
X315797Y582543D01*
X288766Y585609D02*
X315797Y612640D01*
X288766Y549688D02*
X315797Y576719D01*
X288766Y580837D02*
X315797Y553806D01*
X288766Y588021D02*
X315797Y560990D01*
X288766Y556872D02*
X315797Y583903D01*
X288766Y566469D02*
X315734Y539501D01*
X288766Y552100D02*
X315734Y525132D01*
X288766Y559285D02*
X315734Y532316D01*
X288766Y602390D02*
X315797Y575359D01*
X288766Y571241D02*
X315797Y598272D01*
X288766Y578425D02*
X315797Y605456D01*
X288766Y564057D02*
X315797Y591088D01*
X288766Y595205D02*
X315797Y568175D01*
X288766Y544916D02*
X315734Y517948D01*
X288766Y513767D02*
X315734Y540735D01*
X288766Y537732D02*
X315734Y510764D01*
X269516Y513877D02*
X272484Y510909D01*
X269516Y523254D02*
X272734Y526472D01*
X269516Y528245D02*
X272734Y525027D01*
X269516Y516070D02*
X272734Y519288D01*
X269516Y521062D02*
X272734Y517844D01*
X288516Y458956D02*
X315734Y431738D01*
X288516Y427307D02*
X315734Y454525D01*
X288516Y434491D02*
X315734Y461709D01*
X288516Y420122D02*
X315734Y447341D01*
X288516Y451772D02*
X315734Y424554D01*
X288516Y448859D02*
X315734Y476077D01*
X288516Y473325D02*
X315734Y446107D01*
X288516Y480509D02*
X315734Y453291D01*
X288516Y466141D02*
X315734Y438923D01*
X288516Y441675D02*
X315734Y468893D01*
X288516Y398570D02*
X315734Y425788D01*
X288516Y423035D02*
X315734Y395817D01*
X288516Y430219D02*
X315734Y403001D01*
X288516Y415851D02*
X315734Y388633D01*
X288516Y391386D02*
X315734Y418604D01*
X288516Y412938D02*
X315734Y440156D01*
X288516Y444588D02*
X315734Y417370D01*
X288516Y405754D02*
X315734Y432972D01*
X288516Y437404D02*
X315734Y410186D01*
X288766Y523363D02*
X315734Y496395D01*
X288766Y516179D02*
X315734Y489211D01*
X288766Y530548D02*
X315734Y503580D01*
X288516Y509245D02*
X315734Y482027D01*
X288516Y484780D02*
X315734Y511998D01*
X288516Y506333D02*
X315734Y533551D01*
X269516Y508886D02*
X272484Y511854D01*
X288516Y491965D02*
X315734Y519183D01*
X288516Y499149D02*
X315734Y526367D01*
X288516Y494877D02*
X315734Y467659D01*
X288516Y463228D02*
X315734Y490446D01*
X288516Y470412D02*
X315734Y497630D01*
X288516Y456044D02*
X315734Y483262D01*
X288516Y487693D02*
X315734Y460475D01*
X288516Y477596D02*
X315734Y504814D01*
X269516Y506693D02*
X272484Y503725D01*
X288516Y502062D02*
X315734Y474843D01*
X269516Y386754D02*
X272484Y389722D01*
X269516Y578535D02*
X272734Y575317D01*
X269516Y573544D02*
X272734Y576762D01*
X269516Y580728D02*
X272734Y583946D01*
X269516Y566359D02*
X272734Y569577D01*
X269516Y571350D02*
X272734Y568132D01*
X269516Y645386D02*
X272734Y648604D01*
X269516Y643192D02*
X272734Y639974D01*
X269516Y650377D02*
X272734Y647159D01*
X269516Y636008D02*
X272734Y632790D01*
X269516Y638201D02*
X272734Y641420D01*
X269516Y544807D02*
X272734Y548025D01*
X269516Y542613D02*
X272734Y539395D01*
X269516Y549798D02*
X272734Y546580D01*
X269516Y535429D02*
X272734Y532211D01*
X269516Y537622D02*
X272734Y540840D01*
X269516Y559175D02*
X272734Y562393D01*
X269516Y564166D02*
X272734Y560948D01*
X269516Y551991D02*
X272734Y555209D01*
X269516Y556982D02*
X272734Y553764D01*
X269516Y628824D02*
X272734Y625606D01*
X269516Y623833D02*
X272734Y627051D01*
X269516Y631017D02*
X272734Y634235D01*
X269516Y616649D02*
X272734Y619867D01*
X269516Y621640D02*
X272734Y618422D01*
X169016Y559254D02*
X253484Y643722D01*
X169016Y552070D02*
X253484Y636538D01*
X169016Y566438D02*
X253484Y650906D01*
X169016Y537701D02*
X253484Y622169D01*
X169016Y544886D02*
X253484Y629354D01*
X269516Y595096D02*
X272734Y598314D01*
X269516Y592903D02*
X272734Y589685D01*
X269516Y600087D02*
X272734Y596869D01*
X269516Y585719D02*
X272734Y582501D01*
X269516Y587912D02*
X272734Y591130D01*
X269516Y609465D02*
X272734Y612683D01*
X269516Y614455D02*
X272734Y611237D01*
X269516Y602280D02*
X272734Y605499D01*
X269516Y607271D02*
X272734Y604053D01*
X269516Y434851D02*
X272484Y431883D01*
X269516Y429859D02*
X272484Y432827D01*
X269516Y437044D02*
X272484Y440012D01*
X269516Y422675D02*
X272484Y425643D01*
X269516Y427667D02*
X272484Y424699D01*
X269516Y530438D02*
X272734Y533656D01*
X269516Y451412D02*
X272484Y454380D01*
X269516Y456404D02*
X272484Y453436D01*
X269516Y442035D02*
X272484Y439067D01*
X269516Y449219D02*
X272484Y446251D01*
X269516Y401123D02*
X272484Y404090D01*
X269516Y398930D02*
X272484Y395962D01*
X269516Y406114D02*
X272484Y403146D01*
X269516Y391746D02*
X272484Y388778D01*
X269516Y393938D02*
X272484Y396906D01*
X269516Y415491D02*
X272484Y418459D01*
X269516Y420483D02*
X272484Y417515D01*
X269516Y408307D02*
X272484Y411275D01*
X269516Y413298D02*
X272484Y410330D01*
X269516Y494517D02*
X272484Y497485D01*
X269516Y492325D02*
X272484Y489357D01*
X269516Y499509D02*
X272484Y496541D01*
X269516Y485140D02*
X272484Y482173D01*
X269516Y487333D02*
X272484Y490301D01*
X169016Y523333D02*
X253484Y607801D01*
X181302Y602092D02*
X253484Y529909D01*
X169016Y530517D02*
X253484Y614985D01*
X269516Y501702D02*
X272484Y504669D01*
X179857Y596352D02*
X253484Y522725D01*
X269516Y465780D02*
X272484Y468748D01*
X269516Y463588D02*
X272484Y460620D01*
X269516Y470772D02*
X272484Y467804D01*
X269516Y444228D02*
X272484Y447196D01*
X269516Y458596D02*
X272484Y461564D01*
X269516Y477956D02*
X272484Y474988D01*
X269516Y480149D02*
X272484Y483117D01*
X269516Y472965D02*
X272484Y475933D01*
X169016Y470693D02*
X253484Y386225D01*
X128254Y928139D02*
X186721Y869671D01*
X135438Y928139D02*
X193906Y869671D01*
X129089Y871354D02*
X185874Y928139D01*
X137982Y865879D02*
X200243Y928139D01*
X134297Y869377D02*
X193058Y928139D01*
X99517D02*
X159643Y868013D01*
X120276Y869725D02*
X178690Y928139D01*
X92333D02*
X150681Y869790D01*
X121070Y928139D02*
X186409Y862799D01*
X85149Y928139D02*
X145724Y867563D01*
X164175Y928139D02*
X221230Y871084D01*
X192064Y869671D02*
X250532Y928139D01*
X186409Y869671D02*
X208191D01*
X163899Y863059D02*
X228979Y928139D01*
X160798Y867142D02*
X221795Y928139D01*
X156085Y869613D02*
X214611Y928139D01*
X156991D02*
X215955Y869174D01*
X142622Y928139D02*
X201090Y869671D01*
X149806Y928139D02*
X212351Y865594D01*
X148381Y869093D02*
X207427Y928139D01*
X61538Y918750D02*
X70927Y928139D01*
X64553Y914581D02*
X78111Y928139D01*
X57874Y922270D02*
X63742Y928139D01*
X68283Y903942D02*
X92479Y928139D01*
X66858Y909701D02*
X85295Y928139D01*
X48498Y927262D02*
X49374Y928139D01*
X49227D02*
X51024Y926342D01*
X27675Y928139D02*
X29327Y926487D01*
X53554Y925134D02*
X56558Y928139D01*
X65110Y886401D02*
X106848Y928139D01*
X70780D02*
X127409Y871510D01*
X68383Y896858D02*
X99664Y928139D01*
X77964D02*
X142415Y863688D01*
X66342Y911024D02*
X114421Y862945D01*
X63596Y928139D02*
X121423Y870312D01*
X56412Y928139D02*
X117221Y867330D01*
X68097Y894901D02*
X253484Y709514D01*
X66487Y889327D02*
X253484Y702330D01*
X164970Y856945D02*
X236164Y928139D01*
X60902Y880543D02*
X253484Y687961D01*
X64040Y884589D02*
X253484Y695145D01*
X52669Y874408D02*
X253484Y673593D01*
X47458Y872435D02*
X253484Y666409D01*
X57118Y877143D02*
X253484Y680777D01*
X33278Y872246D02*
X253484Y652040D01*
X41238Y871471D02*
X253484Y659224D01*
Y694750D02*
Y741142D01*
X136330Y848221D02*
X253484Y731067D01*
X139312Y852423D02*
X253484Y738251D01*
X125628Y844554D02*
X253484Y716698D01*
X131945Y845421D02*
X253484Y723882D01*
X186409Y847889D02*
Y869671D01*
X140199Y860911D02*
X141907Y862619D01*
X208191Y847889D02*
Y869671D01*
X113885Y928139D02*
X186409Y855615D01*
X68507Y901675D02*
X113554Y856628D01*
X106701Y928139D02*
X186409Y848431D01*
X208191Y862570D02*
X210409Y860352D01*
X208191Y849877D02*
X211596Y853281D01*
X208191Y857061D02*
X210316Y859185D01*
X186409Y847889D02*
X208191D01*
X186409Y848431D02*
X186951Y847889D01*
X139612Y853140D02*
X141387Y854915D01*
X10000Y795370D02*
X142769Y928139D01*
X10000Y788186D02*
X149953Y928139D01*
X10000Y773817D02*
X164321Y928139D01*
X10000Y781001D02*
X157137Y928139D01*
X10000Y824107D02*
X114032Y928139D01*
X10000Y816923D02*
X121216Y928139D01*
X10000D02*
X35136D01*
X10000Y802554D02*
X135585Y928139D01*
X10000Y809738D02*
X128400Y928139D01*
X10000Y759449D02*
X115275Y864724D01*
X10000Y752265D02*
X113646Y855911D01*
X10000Y737896D02*
X119122Y847018D01*
X10000Y745080D02*
X115623Y850703D01*
X10000Y838475D02*
X43142Y871617D01*
X10000Y845659D02*
X36058Y871717D01*
X10000Y766633D02*
X171506Y928139D01*
X10000Y831291D02*
X53599Y874890D01*
X20491Y928139D02*
X24589Y924041D01*
X21004Y921322D02*
X27822Y928139D01*
X13306D02*
X20543Y920902D01*
X10000Y909893D02*
X12435Y907458D01*
X10000Y903133D02*
X11889Y905022D01*
X10000Y917502D02*
X20637Y928139D01*
X10000Y924261D02*
X17143Y917118D01*
X10000Y924686D02*
X13453Y928139D01*
X10000Y910317D02*
X18678Y918996D01*
X10000Y917077D02*
X14408Y912669D01*
X10000Y874396D02*
X17730Y882126D01*
X10000Y867212D02*
X21250Y878462D01*
X10000Y881580D02*
X14866Y886446D01*
X10000Y852844D02*
X30299Y873142D01*
X10000Y860028D02*
X25419Y875447D01*
X10000Y895949D02*
X11553Y897502D01*
X10000Y902708D02*
X11471Y901237D01*
X10000Y888765D02*
X12738Y891502D01*
X10000Y895524D02*
X12247Y893278D01*
X10000Y644501D02*
X214763Y849265D01*
X10000Y651686D02*
X206203Y847889D01*
X10000Y658870D02*
X199019Y847889D01*
X10000Y852419D02*
X253484Y608935D01*
X10000Y859603D02*
X253484Y616119D01*
X10000Y888340D02*
X253484Y644856D01*
X10000Y881156D02*
X253484Y637672D01*
X10000Y694791D02*
X243348Y928139D01*
X10000Y866787D02*
X253484Y623303D01*
X10000Y873971D02*
X253484Y630488D01*
X10000Y493633D02*
X253484Y737117D01*
X10000Y486449D02*
X253484Y729933D01*
X10000Y787761D02*
X253484Y544277D01*
X10000Y472080D02*
X253484Y715564D01*
X10000Y479264D02*
X253484Y722748D01*
X10000Y630133D02*
X227042Y847175D01*
X10000Y637317D02*
X219494Y846811D01*
X10000Y838050D02*
X253484Y594566D01*
X10000Y845235D02*
X253484Y601751D01*
X10000Y709159D02*
X147941Y847101D01*
X10000Y723528D02*
X131860Y845388D01*
X10000Y730712D02*
X124089Y844801D01*
X10000Y773393D02*
X177092Y606302D01*
X10000Y701975D02*
X154055Y846030D01*
X10000Y687607D02*
X186409Y864016D01*
X10000Y680423D02*
X186409Y856831D01*
X10000Y716344D02*
X143858Y850202D01*
X10000Y666054D02*
X191835Y847889D01*
X10000Y673238D02*
X186409Y849647D01*
X10000Y737472D02*
X149211Y598261D01*
X10000Y730288D02*
X145619Y594669D01*
X10000Y723104D02*
X142027Y591077D01*
X10000Y715920D02*
X138434Y587485D01*
X10000Y708735D02*
X135050Y583685D01*
X10000Y766209D02*
X170193Y606016D01*
X10000Y759025D02*
X163009Y606016D01*
X10000Y751841D02*
X156538Y605303D01*
X10000Y744656D02*
X152803Y601854D01*
X172673Y606016D02*
X253484Y686827D01*
X179135Y605294D02*
X253484Y679643D01*
X181516Y600491D02*
X253484Y672459D01*
X158204Y605916D02*
X253484Y701196D01*
X165488Y606016D02*
X253484Y694012D01*
X159250Y606016D02*
X173099D01*
X169016Y516149D02*
X253484Y600617D01*
X162818Y588977D02*
X168825Y594984D01*
X174448Y594577D02*
X253484Y515541D01*
X169016Y508965D02*
X253484Y593433D01*
X168788Y585868D02*
X253484Y501172D01*
X169016Y501781D02*
X253484Y586249D01*
X168008Y586983D02*
X175509Y594484D01*
X161535Y594984D02*
X173099D01*
X166857D02*
X253484Y508357D01*
X160604Y594053D02*
X166368Y588288D01*
X157011Y590461D02*
X159760Y587712D01*
X153419Y586869D02*
X157487Y582801D01*
X146235Y579684D02*
X157984Y567936D01*
X145516Y573219D02*
X157984Y560751D01*
X149827Y583276D02*
X157984Y575120D01*
X145516Y544483D02*
X157984Y532015D01*
X145516Y535754D02*
X157984Y548222D01*
X145516Y522930D02*
X157984Y510462D01*
X145516Y507017D02*
X157984Y519485D01*
X145516Y514202D02*
X157984Y526670D01*
X145516Y499833D02*
X157984Y512301D01*
X145516Y515746D02*
X157984Y503278D01*
X145516Y537298D02*
X157984Y524830D01*
X145516Y528570D02*
X157984Y541038D01*
X145516Y530114D02*
X157984Y517646D01*
X145516Y521386D02*
X157984Y533854D01*
X169016Y429938D02*
X253484Y514406D01*
X169016Y513798D02*
X253484Y429330D01*
Y444500D02*
Y694750D01*
X169016Y506614D02*
X253484Y422146D01*
X169016Y422754D02*
X253484Y507222D01*
X169016Y444307D02*
X253484Y528775D01*
X169016Y528167D02*
X253484Y443699D01*
X169016Y535351D02*
X253484Y450883D01*
X169016Y520983D02*
X253484Y436515D01*
X169016Y437123D02*
X253484Y521590D01*
X169016Y485061D02*
X253484Y400593D01*
X169016Y394017D02*
X253484Y478485D01*
X169016Y401202D02*
X253484Y485670D01*
X169016Y386833D02*
X253484Y471301D01*
X169016Y477877D02*
X253484Y393409D01*
X169016Y499430D02*
X253484Y414962D01*
X169016Y415570D02*
X253484Y500038D01*
X169016Y492246D02*
X253484Y407778D01*
X169016Y408386D02*
X253484Y492854D01*
X169016Y473044D02*
X253484Y557512D01*
X169016Y556904D02*
X253484Y472436D01*
X169016Y564088D02*
X253484Y479620D01*
X169016Y549719D02*
X253484Y465251D01*
X169016Y465859D02*
X253484Y550327D01*
X169016Y578456D02*
X253484Y493988D01*
X169016Y487412D02*
X253484Y571880D01*
X169016Y494596D02*
X253484Y579064D01*
X169016Y480228D02*
X253484Y564696D01*
X169016Y571272D02*
X253484Y486804D01*
X169016Y458675D02*
X253484Y543143D01*
X145516Y478280D02*
X157984Y490748D01*
X145516Y494193D02*
X157984Y481725D01*
X169016Y451491D02*
X253484Y535959D01*
X169016Y542535D02*
X253484Y458067D01*
X145516Y492649D02*
X157984Y505117D01*
X145516Y508562D02*
X157984Y496093D01*
X145516Y485465D02*
X157984Y497933D01*
X145516Y501377D02*
X157984Y488909D01*
X145516Y564491D02*
X157984Y576959D01*
X145516Y557307D02*
X157984Y569775D01*
X145516Y571675D02*
X157523Y583682D01*
X145516Y550123D02*
X157984Y562591D01*
X145516Y566035D02*
X157984Y553567D01*
X136100Y585150D02*
X155350Y604400D01*
X145516Y578965D02*
X161535Y594984D01*
X10000Y464896D02*
X253484Y708380D01*
X145516Y578859D02*
X161640Y594984D01*
X145516Y479825D02*
X157984Y467357D01*
X145516Y463912D02*
X157984Y476380D01*
X145516Y471096D02*
X157984Y483564D01*
X145516Y456728D02*
X157984Y469196D01*
X145516Y472640D02*
X157984Y460172D01*
X145516Y542938D02*
X157984Y555406D01*
X145516Y558851D02*
X157984Y546383D01*
X145516Y487009D02*
X157984Y474541D01*
X145516Y551667D02*
X157984Y539199D01*
X10000Y658446D02*
X134484Y533962D01*
X10000Y651262D02*
X134484Y526778D01*
X10000Y665630D02*
X134484Y541146D01*
X10000Y636893D02*
X134484Y512409D01*
X10000Y644078D02*
X134484Y519594D01*
X10000Y694367D02*
X134484Y569883D01*
X10000Y687183D02*
X134484Y562699D01*
X10000Y701551D02*
X134484Y577067D01*
X10000Y672814D02*
X134484Y548330D01*
X10000Y679998D02*
X134484Y555514D01*
X10000Y593788D02*
X134484Y469304D01*
X10000Y600972D02*
X134484Y476488D01*
X10000Y457712D02*
X134584Y582296D01*
X10000Y586604D02*
X134484Y462120D01*
X10000Y622525D02*
X134484Y498041D01*
X10000Y629709D02*
X134484Y505225D01*
X10000Y608156D02*
X134484Y483672D01*
X10000Y615341D02*
X134484Y490857D01*
X145516Y443904D02*
X157984Y431436D01*
X145516Y427991D02*
X157984Y440459D01*
X145516Y435175D02*
X157984Y447643D01*
X145516Y420807D02*
X157984Y433275D01*
X145516Y436719D02*
X157984Y424251D01*
X145516Y449544D02*
X157984Y462012D01*
X145516Y458272D02*
X157984Y445804D01*
X145516Y465456D02*
X157984Y452988D01*
X145516Y451088D02*
X157984Y438620D01*
X145516Y442359D02*
X157984Y454827D01*
X145516Y399254D02*
X157984Y411722D01*
X145516Y407982D02*
X157984Y395514D01*
X145516Y415167D02*
X157984Y402699D01*
X145516Y400798D02*
X157984Y388330D01*
X145516Y392070D02*
X157984Y404538D01*
X145516Y413623D02*
X157984Y426091D01*
X145516Y429535D02*
X157984Y417067D01*
X145516Y406438D02*
X157984Y418906D01*
X145516Y422351D02*
X157984Y409883D01*
X10000Y557867D02*
X134484Y433383D01*
X10000Y428975D02*
X134484Y553459D01*
X10000Y436159D02*
X134484Y560643D01*
X10000Y421791D02*
X134484Y546275D01*
X10000Y550683D02*
X134484Y426199D01*
X10000Y450528D02*
X134484Y575012D01*
X10000Y572235D02*
X134484Y447751D01*
X10000Y579420D02*
X134484Y454936D01*
X10000Y565051D02*
X134484Y440567D01*
X10000Y443344D02*
X134484Y567827D01*
X10000Y400238D02*
X134484Y524722D01*
X10000Y521946D02*
X134484Y397462D01*
X10000Y529130D02*
X134484Y404646D01*
X10000Y514762D02*
X134484Y390278D01*
X10000Y393054D02*
X134484Y517538D01*
X10000Y414607D02*
X134484Y539091D01*
X10000Y543498D02*
X134484Y419015D01*
X10000Y407422D02*
X134484Y531906D01*
X10000Y536314D02*
X134484Y411830D01*
X288516Y362649D02*
X315734Y389867D01*
X288516Y387114D02*
X315734Y359896D01*
X288516Y394298D02*
X315734Y367080D01*
X288516Y379930D02*
X315734Y352712D01*
X288516Y355465D02*
X315734Y382683D01*
X288516Y408667D02*
X315734Y381449D01*
X288516Y377017D02*
X315734Y404235D01*
X288516Y384201D02*
X315734Y411419D01*
X288516Y369833D02*
X315734Y397051D01*
X288516Y401483D02*
X315734Y374265D01*
X288516Y305175D02*
X315734Y332393D01*
X288516Y329641D02*
X315734Y302422D01*
X288516Y336825D02*
X315734Y309607D01*
X288516Y322456D02*
X315734Y295238D01*
X288516Y297991D02*
X315734Y325209D01*
X288516Y351193D02*
X315734Y323975D01*
X288516Y319543D02*
X315734Y346762D01*
X288516Y326728D02*
X315734Y353946D01*
X288516Y312359D02*
X315734Y339577D01*
X288516Y344009D02*
X315734Y316791D01*
X288516Y341096D02*
X315734Y368314D01*
X288516Y365561D02*
X315734Y338344D01*
X288516Y372746D02*
X315734Y345528D01*
X288516Y358377D02*
X315734Y331159D01*
X288516Y333912D02*
X315734Y361130D01*
X269516Y379570D02*
X272484Y382538D01*
X288516Y348280D02*
X315734Y375498D01*
X269516Y384562D02*
X272484Y381594D01*
X269516Y329280D02*
X272484Y332248D01*
X269516Y334272D02*
X272484Y331304D01*
X269516Y307728D02*
X272484Y310696D01*
X269516Y305535D02*
X272484Y302567D01*
X269516Y312719D02*
X272484Y309751D01*
X269516Y298351D02*
X272484Y295383D01*
X269516Y300543D02*
X272484Y303512D01*
X269516Y322096D02*
X272484Y325064D01*
X269516Y327088D02*
X272484Y324120D01*
X269516Y314912D02*
X272484Y317880D01*
X269516Y319904D02*
X272484Y316936D01*
X288516Y293719D02*
X315734Y266501D01*
X288516Y262070D02*
X315734Y289288D01*
X288516Y269254D02*
X315734Y296472D01*
X288516Y254886D02*
X315734Y282104D01*
X288516Y286535D02*
X315734Y259317D01*
X288516Y283622D02*
X315734Y310840D01*
X288516Y308088D02*
X315734Y280870D01*
X288516Y283622D02*
X315734Y310840D01*
X288516Y300904D02*
X315734Y273686D01*
X288516Y276438D02*
X315734Y303656D01*
X288516Y233333D02*
X315734Y260551D01*
X288516Y257798D02*
X315734Y230580D01*
X288516Y264983D02*
X315734Y237764D01*
X288516Y250614D02*
X315734Y223396D01*
X288516Y226149D02*
X315734Y253367D01*
X288516Y247701D02*
X315734Y274919D01*
X288516Y279351D02*
X315734Y252133D01*
X288516Y240517D02*
X315734Y267735D01*
X288516Y272167D02*
X315734Y244949D01*
X288516Y290807D02*
X315734Y318025D01*
X288516Y315272D02*
X315734Y288054D01*
X269516Y278991D02*
X272484Y281959D01*
X288516Y37736D02*
Y510514D01*
X272484Y36000D02*
Y512250D01*
X269516Y291167D02*
X272484Y288199D01*
X269516Y286175D02*
X272484Y289143D01*
X269516Y293359D02*
X272484Y296327D01*
X269516Y283983D02*
X272484Y281014D01*
X269516Y242250D02*
Y444500D01*
Y262430D02*
X272484Y259462D01*
X269516Y257438D02*
X272484Y260406D01*
X269516Y264622D02*
X272484Y267591D01*
X269516Y250254D02*
X272484Y253222D01*
X269516Y255246D02*
X272484Y252278D01*
X269516Y271807D02*
X272484Y274775D01*
X269516Y276798D02*
X272484Y273830D01*
X269516Y264622D02*
X272484Y267591D01*
X269516Y269614D02*
X272484Y266646D01*
X269516Y372386D02*
X272484Y375354D01*
X269516Y370193D02*
X272484Y367225D01*
X269516Y377377D02*
X272484Y374409D01*
X183016Y328991D02*
X253484Y399459D01*
X183016Y336175D02*
X253484Y406643D01*
X169016Y427588D02*
X253484Y343120D01*
X182140Y342483D02*
X253484Y413827D01*
X178637Y346164D02*
X253484Y421012D01*
X169016Y413219D02*
X253484Y328751D01*
X169016Y420404D02*
X253484Y335936D01*
X269516Y348641D02*
X272484Y345672D01*
X269516Y343649D02*
X272484Y346617D01*
X269516Y350833D02*
X272484Y353801D01*
X269516Y336465D02*
X272484Y339433D01*
X269516Y341456D02*
X272484Y338488D01*
X269516Y363009D02*
X272484Y360041D01*
X269516Y365201D02*
X272484Y368170D01*
X269516Y355825D02*
X272484Y352857D01*
X269516Y358017D02*
X272484Y360985D01*
X169016Y358096D02*
X253484Y442564D01*
X169016Y441956D02*
X253484Y357488D01*
X169016Y449140D02*
X253484Y364672D01*
X169016Y434772D02*
X253484Y350304D01*
X171452Y353348D02*
X253484Y435380D01*
X169016Y463509D02*
X253484Y379041D01*
X169016Y372465D02*
X253484Y456933D01*
X169016Y379649D02*
X253484Y464117D01*
X169016Y365280D02*
X253484Y449748D01*
X169016Y456325D02*
X253484Y371857D01*
X183016Y321807D02*
X253484Y392275D01*
X183016Y307438D02*
X253484Y377906D01*
X183016Y314622D02*
X253484Y385090D01*
X169016Y406035D02*
X253484Y321567D01*
X175044Y349756D02*
X253484Y428196D01*
X169016Y391667D02*
X253484Y307199D01*
X169016Y398851D02*
X253484Y314383D01*
X183016Y214044D02*
X253484Y284512D01*
X183016Y206859D02*
X253484Y277327D01*
X183016Y221228D02*
X253484Y291696D01*
X183016Y284272D02*
X272484Y194804D01*
X183016Y291456D02*
X272484Y201988D01*
X183016Y235596D02*
X253484Y306064D01*
X183016Y228412D02*
X253484Y298880D01*
X183016Y300254D02*
X253484Y370722D01*
X183016Y298640D02*
X272484Y209172D01*
X183016Y305825D02*
X272484Y216357D01*
X183016Y178123D02*
X253484Y248591D01*
X183016Y178123D02*
X253484Y248591D01*
X183016Y185307D02*
X253484Y255775D01*
X183016Y255535D02*
X272484Y166067D01*
X183016Y262719D02*
X272484Y173251D01*
X183016Y192491D02*
X253484Y262959D01*
X183016Y199675D02*
X253484Y270143D01*
X183016Y269904D02*
X272484Y180436D01*
X183016Y277088D02*
X272484Y187620D01*
X183016Y285886D02*
X253484Y356354D01*
X183016Y278701D02*
X253484Y349170D01*
X183016Y293070D02*
X253484Y363538D01*
Y244885D02*
Y444500D01*
X183016Y271517D02*
X253484Y341985D01*
X169016Y377298D02*
X253484Y292830D01*
X169016Y370114D02*
X253484Y285646D01*
X169016Y384482D02*
X253484Y300014D01*
X181771Y342991D02*
X253484Y271278D01*
X169016Y362930D02*
X253484Y278462D01*
X183016Y249965D02*
X253484Y320433D01*
X183016Y320193D02*
X253484Y249725D01*
X183016Y327377D02*
X253484Y256909D01*
X183016Y242780D02*
X253484Y313248D01*
X183016Y313009D02*
X252900Y243125D01*
X183016Y334562D02*
X253484Y264093D01*
X183016Y264333D02*
X253484Y334801D01*
X183016Y257149D02*
X253484Y327617D01*
X183016Y152516D02*
Y339500D01*
X288516Y185956D02*
X315734Y158738D01*
X288516Y154307D02*
X315734Y181525D01*
X288516Y161491D02*
X315734Y188709D01*
X288516Y147122D02*
X315734Y174340D01*
X288516Y178772D02*
X315734Y151554D01*
X288516Y175859D02*
X315734Y203077D01*
X288516Y200325D02*
X315734Y173107D01*
X288516Y207509D02*
X315734Y180291D01*
X288516Y193140D02*
X315734Y165922D01*
X288516Y168675D02*
X315734Y195893D01*
X288516Y125570D02*
X315734Y152788D01*
X288516Y150035D02*
X315734Y122817D01*
X288516Y157219D02*
X315734Y130001D01*
X288516Y142851D02*
X315734Y115633D01*
X288516Y118386D02*
X315734Y145604D01*
X288516Y139938D02*
X315734Y167156D01*
X288516Y171588D02*
X315734Y144370D01*
X288516Y132754D02*
X315734Y159972D01*
X288516Y164404D02*
X315734Y137186D01*
X288516Y218965D02*
X315734Y246183D01*
X269516Y243070D02*
X272484Y246038D01*
X269516Y248062D02*
X272484Y245093D01*
X288516Y211780D02*
X315734Y238998D01*
X288516Y243430D02*
X315734Y216212D01*
X269415Y240979D02*
X272484Y237909D01*
X266898Y236311D02*
X272484Y230725D01*
X266418Y235832D02*
X267168Y236582D01*
X288516Y221877D02*
X315734Y194659D01*
X288516Y190228D02*
X315734Y217446D01*
X288516Y197412D02*
X315734Y224630D01*
X288516Y183043D02*
X315734Y210261D01*
X288516Y214693D02*
X315734Y187475D01*
X288516Y236246D02*
X315734Y209028D01*
X262374Y233650D02*
X272484Y223541D01*
X288516Y229062D02*
X315734Y201843D01*
X288516Y204596D02*
X315734Y231814D01*
X288516Y71009D02*
X348970Y10555D01*
X288791Y10897D02*
X346984Y69090D01*
X288516Y46543D02*
X315734Y73762D01*
X288516Y85377D02*
X363421Y10472D01*
X288516Y78193D02*
X356195Y10514D01*
X288516Y135667D02*
X315734Y108449D01*
X288516Y104017D02*
X315734Y131235D01*
X288516Y111201D02*
X315734Y138419D01*
X288516Y92562D02*
X315734Y65343D01*
X288516Y99746D02*
X315734Y72528D01*
X295934Y10857D02*
X346984Y61906D01*
X288516Y49456D02*
X327294Y10678D01*
X288516Y42272D02*
X320069Y10719D01*
X288516Y63825D02*
X341745Y10596D01*
X288516Y56640D02*
X334519Y10637D01*
X267360Y11019D02*
X316475Y60134D01*
X288516Y39359D02*
X315734Y66577D01*
X281647Y10938D02*
X324012Y53303D01*
X274504Y10979D02*
X319719Y56194D01*
X288516Y106930D02*
X315734Y79712D01*
X288516Y75280D02*
X315734Y102498D01*
X288516Y82465D02*
X315734Y109683D01*
X288516Y60912D02*
X315734Y88130D01*
X288516Y68096D02*
X315734Y95314D01*
X288516Y96833D02*
X315734Y124051D01*
X288516Y121298D02*
X315734Y94080D01*
X288516Y128483D02*
X315734Y101264D01*
X288516Y114114D02*
X315734Y86896D01*
X288516Y89649D02*
X315734Y116867D01*
X288516Y53728D02*
X315734Y80946D01*
X281469Y27766D02*
X298393Y10843D01*
X288719Y34885D02*
X312843Y10760D01*
X286378Y30042D02*
X305618Y10802D01*
X260217Y11060D02*
X277555Y28398D01*
X183016Y205246D02*
X272484Y115778D01*
X183016Y198061D02*
X272484Y108593D01*
X183016Y248351D02*
X272484Y158883D01*
X183016Y183693D02*
X272484Y94225D01*
X183016Y190877D02*
X272484Y101409D01*
X74485Y12117D02*
X272484Y210117D01*
X81628Y12077D02*
X272484Y202933D01*
X67341Y12158D02*
X272484Y217301D01*
X95915Y11995D02*
X272484Y188564D01*
X88772Y12036D02*
X272484Y195748D01*
X183016Y169325D02*
X272484Y79857D01*
X199179Y145978D02*
X272484Y72672D01*
X183016Y176509D02*
X272484Y87041D01*
X189304Y141484D02*
X272484Y58304D01*
X196210Y141762D02*
X272484Y65488D01*
X177110Y139309D02*
X272484Y43935D01*
X182120Y141484D02*
X272484Y51120D01*
X103059Y11955D02*
X272484Y181380D01*
X173518Y135717D02*
X272484Y36751D01*
X186146Y152516D02*
X272484Y238854D01*
X193805Y152990D02*
X272484Y231669D01*
X183016Y226798D02*
X272484Y137330D01*
X198288Y150289D02*
X272484Y224485D01*
X183016Y163754D02*
X255088Y235826D01*
X183016Y156570D02*
X259968Y233522D01*
X183016Y170938D02*
X252774Y240697D01*
X183016Y233983D02*
X272484Y144515D01*
X183016Y241167D02*
X272484Y151699D01*
X183016Y162140D02*
X192228Y152928D01*
X183016Y152516D02*
X190849D01*
X183016Y154956D02*
X185456Y152516D01*
X183016Y219614D02*
X272484Y130146D01*
X179285Y141484D02*
X190849D01*
X183016Y212430D02*
X272484Y122962D01*
X60197Y12199D02*
X189483Y141484D01*
X153063Y11670D02*
X272484Y131090D01*
X162742Y124941D02*
X276717Y10966D01*
X145920Y11711D02*
X272484Y138275D01*
X169926Y132125D02*
X291167Y10884D01*
X166334Y128533D02*
X283942Y10925D01*
X117346Y11873D02*
X272484Y167012D01*
X124489Y11833D02*
X272484Y159827D01*
X110202Y11914D02*
X272484Y174196D01*
X138776Y11751D02*
X272484Y145459D01*
X131633Y11792D02*
X272484Y152643D01*
X231642Y11223D02*
X272484Y52064D01*
X238786Y11182D02*
X272484Y44880D01*
X224499Y11263D02*
X272484Y59248D01*
X253073Y11101D02*
X273711Y31738D01*
X245930Y11141D02*
X272484Y37696D01*
X167351Y11589D02*
X272484Y116722D01*
X160207Y11629D02*
X272484Y123906D01*
X46838Y12275D02*
X790000Y8044D01*
X217355Y11304D02*
X272484Y66433D01*
X151965Y114165D02*
X255041Y11089D01*
X174494Y11548D02*
X272484Y109538D01*
X151697Y107249D02*
X247815Y11131D01*
X159150Y121349D02*
X269491Y11007D01*
X155557Y117757D02*
X262266Y11048D01*
X83562Y117910D02*
X190012Y11460D01*
X119873Y103152D02*
X211688Y11336D01*
X80832Y113456D02*
X182787Y11501D01*
X149332Y102430D02*
X240590Y11172D01*
X121897Y108312D02*
X218914Y11295D01*
X188781Y11467D02*
X272484Y95169D01*
X195925Y11426D02*
X272484Y87985D01*
X181638Y11507D02*
X272484Y102354D01*
X210212Y11345D02*
X272484Y73617D01*
X203068Y11385D02*
X272484Y80801D01*
X116158Y99682D02*
X204463Y11377D01*
X110654Y98002D02*
X197238Y11418D01*
X145341Y99236D02*
X233365Y11213D01*
X139394Y97999D02*
X226139Y11254D01*
X169016Y356321D02*
Y580599D01*
X169598Y355202D02*
X181400Y343400D01*
X161798Y347402D02*
X171984Y337215D01*
X145516Y357693D02*
X171984Y331225D01*
X145516Y334596D02*
X159706Y348786D01*
X145516Y364877D02*
X158016Y352377D01*
X145516Y350509D02*
X166550Y329475D01*
X145516Y327412D02*
X163652Y345548D01*
X171984Y327212D02*
Y337215D01*
X168932Y329276D02*
X171984Y332327D01*
X166604Y315053D02*
X171984Y309672D01*
X170441Y318400D02*
X171984Y316857D01*
X145516Y343325D02*
X162150Y326691D01*
X145516Y336140D02*
X158803Y322854D01*
X146012Y313540D02*
X170836Y338363D01*
X145516Y320228D02*
X167244Y341955D01*
X145516Y370517D02*
X157984Y382985D01*
X145516Y379246D02*
X157984Y366778D01*
X145516Y386430D02*
X157984Y373962D01*
Y353771D02*
Y580599D01*
X145516Y363333D02*
X157984Y375801D01*
X145516Y393614D02*
X157984Y381146D01*
X145516Y377701D02*
X157984Y390169D01*
X145516Y384886D02*
X157984Y397354D01*
X145516Y316151D02*
Y578965D01*
X134484Y316151D02*
Y581250D01*
X145516Y341780D02*
X157984Y354249D01*
X145516Y328956D02*
X155211Y319261D01*
X145516Y321772D02*
X151619Y315669D01*
X146006Y314098D02*
X148027Y312077D01*
X145516Y356149D02*
X157984Y368617D01*
X145516Y372062D02*
X157984Y359593D01*
X145516Y348965D02*
X157984Y361433D01*
X143818Y309101D02*
X144434Y308485D01*
X134275Y282724D02*
X171984Y245014D01*
X131476Y271154D02*
X171984Y230646D01*
X137867Y286316D02*
X171984Y252199D01*
Y149785D02*
Y319788D01*
X131476Y227162D02*
X171984Y267670D01*
X131476Y248714D02*
X171984Y289222D01*
X131476Y241530D02*
X171984Y282038D01*
X131476Y255898D02*
X171984Y296406D01*
X131476Y234346D02*
X171984Y274854D01*
X131476Y278338D02*
X171984Y237830D01*
X131476Y205609D02*
X171984Y246117D01*
X131476Y242417D02*
X171984Y201909D01*
X131476Y249601D02*
X171984Y209093D01*
X131476Y235233D02*
X171984Y194725D01*
X131476Y198425D02*
X171984Y238933D01*
X131476Y219977D02*
X171984Y260485D01*
X131476Y263970D02*
X171984Y223462D01*
X131476Y212793D02*
X171984Y253301D01*
X131476Y256786D02*
X171984Y216278D01*
X163011Y311461D02*
X171984Y302488D01*
X137420Y308315D02*
X140842Y304893D01*
X155827Y304277D02*
X171984Y288120D01*
X159419Y307869D02*
X171984Y295304D01*
X131476Y277451D02*
X171984Y317959D01*
X131476Y279925D02*
X169452Y317902D01*
X122060Y286110D02*
X161652Y325702D01*
X131476Y270267D02*
X171984Y310775D01*
X10000Y191896D02*
X134484Y316380D01*
X148643Y297092D02*
X171984Y273751D01*
X145051Y293500D02*
X171984Y266567D01*
X152235Y300684D02*
X171984Y280935D01*
X141459Y289908D02*
X171984Y259383D01*
X131476Y148469D02*
Y279925D01*
Y263083D02*
X171984Y303591D01*
X120444Y145942D02*
Y282210D01*
X10000Y364317D02*
X134484Y488801D01*
X10000Y486025D02*
X134484Y361541D01*
X10000Y493209D02*
X134484Y368725D01*
X10000Y314028D02*
X134484Y438512D01*
X10000Y442920D02*
X134484Y318435D01*
X10000Y507577D02*
X134484Y383093D01*
X10000Y378686D02*
X134484Y503170D01*
X10000Y385870D02*
X134484Y510354D01*
X10000Y371501D02*
X134484Y495985D01*
X10000Y500393D02*
X134484Y375909D01*
X10000Y285291D02*
X134484Y409775D01*
X10000Y278107D02*
X134484Y402591D01*
X10000Y292475D02*
X134484Y416959D01*
X10000Y263738D02*
X134484Y388222D01*
X10000Y270922D02*
X134484Y395406D01*
X10000Y435735D02*
X134565Y311170D01*
X10000Y306843D02*
X134484Y431327D01*
X10000Y428551D02*
X137250Y301301D01*
X10000Y299659D02*
X134484Y424143D01*
X10000Y335580D02*
X134484Y460064D01*
X10000Y457288D02*
X134484Y332804D01*
X10000Y464472D02*
X134484Y339988D01*
X10000Y450104D02*
X134484Y325620D01*
X10000Y328396D02*
X134484Y452880D01*
X10000Y478841D02*
X134484Y354357D01*
X10000Y349949D02*
X134484Y474433D01*
X10000Y357133D02*
X134484Y481617D01*
X10000Y342765D02*
X134484Y467248D01*
X10000Y471656D02*
X134484Y347172D01*
X10000Y399814D02*
X122882Y286933D01*
X10000Y385446D02*
X120444Y275002D01*
X10000Y392630D02*
X120444Y282186D01*
X10000Y371077D02*
X120444Y260633D01*
X10000Y378262D02*
X120444Y267818D01*
X10000Y321212D02*
X134484Y445696D01*
X10000Y421367D02*
X133658Y297709D01*
X10000Y414183D02*
X130066Y294117D01*
X10000Y406998D02*
X126474Y290525D01*
X10000Y213449D02*
X134484Y337933D01*
X10000Y206264D02*
X134484Y330748D01*
X10000Y220633D02*
X134484Y345117D01*
X10000Y184712D02*
X135292Y310004D01*
X10000Y199080D02*
X134484Y323564D01*
X10000Y249370D02*
X134484Y373854D01*
X10000Y242185D02*
X134484Y366670D01*
X10000Y256554D02*
X134484Y381038D01*
X10000Y227817D02*
X134484Y352301D01*
X10000Y235001D02*
X134484Y359485D01*
X10000Y148791D02*
X120444Y259235D01*
X10000Y141607D02*
X120444Y252051D01*
X10000Y263314D02*
X120444Y152870D01*
X10000Y127238D02*
X120444Y237682D01*
X10000Y134422D02*
X120444Y244866D01*
X10000Y177528D02*
X140210Y307738D01*
X10000Y163159D02*
X120444Y273603D01*
X10000Y155975D02*
X120444Y266419D01*
X10000Y270498D02*
X120444Y160054D01*
X10000Y335156D02*
X120444Y224712D01*
X10000Y327972D02*
X120444Y217528D01*
X10000Y342341D02*
X120444Y231896D01*
X10000Y313604D02*
X120444Y203160D01*
X10000Y320788D02*
X120444Y210344D01*
X10000Y356709D02*
X120444Y246265D01*
X10000Y349525D02*
X120444Y239081D01*
X10000Y363893D02*
X120444Y253449D01*
X10000Y12485D02*
Y928139D01*
Y12485D02*
Y928139D01*
Y170343D02*
X120444Y280787D01*
X10000Y277683D02*
X120444Y167239D01*
X10000Y248946D02*
X107249Y151697D01*
X10000Y256130D02*
X115392Y150738D01*
X10000Y241762D02*
X102430Y149332D01*
X10000Y299235D02*
X120444Y188791D01*
X10000Y306420D02*
X120444Y195975D01*
X10000Y284867D02*
X120444Y174423D01*
X10000Y292051D02*
X120444Y181607D01*
X131476Y169688D02*
X171984Y210196D01*
X131476Y206496D02*
X171984Y165988D01*
X131476Y213680D02*
X171984Y173172D01*
X131476Y199312D02*
X171984Y158804D01*
X131476Y162504D02*
X171984Y203012D01*
X131476Y228049D02*
X171984Y187541D01*
X131476Y184056D02*
X171984Y224564D01*
X131476Y191240D02*
X171984Y231748D01*
X131476Y176872D02*
X171984Y217380D01*
X131476Y220865D02*
X171984Y180357D01*
X147274Y149564D02*
X171984Y174275D01*
X150583Y145690D02*
X171984Y167090D01*
X142316Y151791D02*
X171984Y181459D01*
X152016Y139938D02*
X171984Y159906D01*
X150583Y145690D02*
X171984Y167090D01*
X131476Y192128D02*
X171984Y151620D01*
X131476Y155319D02*
X171984Y195827D01*
X133347Y150006D02*
X171984Y188643D01*
X131476Y184944D02*
X169309Y147110D01*
X131476Y163391D02*
X143318Y151549D01*
X131476Y156207D02*
X136263Y151420D01*
X113333Y151545D02*
X120444Y158656D01*
X131476Y177759D02*
X165717Y143518D01*
X131476Y170575D02*
X162125Y139926D01*
X68794Y142927D02*
X120444Y194577D01*
X74453Y141402D02*
X120444Y187393D01*
X105898Y151294D02*
X120444Y165840D01*
X82158Y134738D02*
X120444Y173024D01*
X78826Y138591D02*
X120444Y180208D01*
X151549Y143318D02*
X158533Y136334D01*
X151420Y136263D02*
X154941Y132742D01*
X148742Y131756D02*
X151349Y129150D01*
X120444Y128245D02*
Y134058D01*
X119332Y132430D02*
X120444Y131318D01*
X117967Y148995D02*
X120444Y151472D01*
X84373Y129769D02*
X98706Y144102D01*
X141216Y121954D02*
X171984Y152722D01*
X143648Y121449D02*
X171984Y149785D01*
X144468Y128846D02*
X147757Y125557D01*
X151961Y111147D02*
X182299Y141484D01*
X151449Y113648D02*
X179285Y141484D01*
X131476Y126582D02*
X134310Y129417D01*
X131476Y126582D02*
X134310Y129417D01*
X137974Y128156D02*
X144165Y121965D01*
X122016Y109938D02*
X140062Y127984D01*
X131476Y127470D02*
X137249Y121697D01*
X129781Y121980D02*
X132430Y119332D01*
X67994Y34364D02*
X133515Y99884D01*
X77054Y110050D02*
X175562Y11542D01*
X72176Y107744D02*
X168336Y11583D01*
X131476Y125960D02*
Y131531D01*
X112316Y121791D02*
X120444Y129919D01*
X115341Y129236D02*
X118388Y126189D01*
X121449Y113648D02*
X129860Y122060D01*
X113648Y121449D02*
X120444Y128245D01*
X103347Y120006D02*
X111408Y128067D01*
X109394Y127999D02*
X114796Y122597D01*
X84919Y123131D02*
X98455Y136667D01*
X83414Y132426D02*
X99682Y116158D01*
X84968Y123688D02*
X98002Y110654D01*
X126189Y118388D02*
X129236Y115341D01*
X122597Y114796D02*
X127999Y109394D01*
X68552Y39525D02*
X96083Y11994D01*
X68483Y42037D02*
X129914Y103468D01*
X67378Y48116D02*
X128046Y108784D01*
X67473Y47788D02*
X103308Y11953D01*
X67726Y33167D02*
X88858Y12035D01*
X10000Y213025D02*
X103152Y119873D01*
X60476Y141793D02*
X120444Y201761D01*
X10000Y205840D02*
X74426Y141414D01*
X10000Y98501D02*
X120444Y208945D01*
X10000Y105686D02*
X120444Y216129D01*
X10000Y234577D02*
X99236Y145341D01*
X10000Y220209D02*
X108312Y121897D01*
X10000Y227393D02*
X97999Y139394D01*
X10000Y112870D02*
X120444Y223314D01*
X10000Y120054D02*
X120444Y230498D01*
X50065Y66724D02*
X99994Y116653D01*
X59014Y61305D02*
X100436Y102726D01*
X54891Y64366D02*
X98209Y107684D01*
X62490Y57597D02*
X104310Y99417D01*
X62490Y57597D02*
X104310Y99417D01*
X37411Y68438D02*
X101005Y132033D01*
X44375Y68219D02*
X105159Y129002D01*
X27428Y65639D02*
X68870Y107081D01*
X10000Y91317D02*
X50207Y131524D01*
X10000Y84133D02*
X49074Y123206D01*
X10000Y162735D02*
X49031Y123705D01*
X10000Y69764D02*
X53409Y113174D01*
X10000Y76949D02*
X50598Y117547D01*
X10000Y198656D02*
X65688Y142968D01*
X10000Y191472D02*
X59910Y141562D01*
X10000Y184288D02*
X55456Y138832D01*
X10000Y177104D02*
X52050Y135054D01*
X10000Y169919D02*
X49743Y130176D01*
X10000Y90893D02*
X33167Y67726D01*
X10000Y83709D02*
X27861Y65848D01*
X10000Y76525D02*
X23335Y63189D01*
X10000Y69341D02*
X19481Y59860D01*
X10000Y62156D02*
X16271Y55886D01*
X10000Y105262D02*
X47788Y67473D01*
X10000Y98077D02*
X39525Y68552D01*
X10000Y55396D02*
X62231Y107627D01*
X10000Y62580D02*
X57262Y109843D01*
X10000Y112446D02*
X110534Y11912D01*
X53054Y12239D02*
X138853Y98039D01*
X65307Y53229D02*
X110062Y97984D01*
X65705Y107031D02*
X161111Y11624D01*
X10000Y119630D02*
X117759Y11871D01*
X10000Y141183D02*
X139435Y11748D01*
X10000Y133998D02*
X132210Y11789D01*
X10000Y126814D02*
X124984Y11830D01*
X10000Y155551D02*
X153886Y11665D01*
X10000Y148367D02*
X146660Y11707D01*
X59860Y19481D02*
X67182Y12159D01*
X55886Y16271D02*
X59956Y12200D01*
X51228Y13744D02*
X52731Y12241D01*
X65848Y27861D02*
X81632Y12077D01*
X63189Y23335D02*
X74407Y12118D01*
X10000Y33419D02*
X13155Y30265D01*
X10000Y33843D02*
X11781Y35625D01*
X10000Y26235D02*
X23830Y12406D01*
X10000Y26659D02*
X13276Y29936D01*
X10000Y54972D02*
X13744Y51228D01*
X10000Y48212D02*
X14361Y52572D01*
X10000Y47788D02*
X12030Y45757D01*
X10000Y41028D02*
X11562Y42589D01*
X10000Y40604D02*
X11457Y39147D01*
X17336Y12443D02*
X22403Y17510D01*
X17336Y12443D02*
X22403Y17510D01*
X10193Y12483D02*
X18695Y20986D01*
X30265Y13155D02*
X31055Y12365D01*
X24480Y12402D02*
X26771Y14693D01*
X10000Y19051D02*
X16604Y12447D01*
X10000Y19475D02*
X15634Y25109D01*
X10000Y12485D02*
X32847Y12354D01*
X10000Y12485D02*
X32847Y12354D01*
D39*
X760000Y900000D02*
X787540D01*
X760000Y872460D02*
Y900000D01*
X732460D02*
X760000D01*
Y40000D02*
Y67540D01*
X732460Y40000D02*
X760000D01*
X787540D01*
X760000Y12460D02*
Y40000D01*
X40000Y900000D02*
X67540D01*
X40000Y872460D02*
Y900000D01*
X12460D02*
X40000D01*
Y40000D02*
X67540D01*
X12460D02*
X40000D01*
Y67540D01*
D40*
X545000Y910400D02*
X557500D01*
X545000Y897900D02*
Y910400D01*
X532500D02*
X545000D01*
Y922900D01*
X495000Y910400D02*
X507500D01*
X495000D02*
Y922900D01*
Y897900D02*
Y910400D01*
X482500D02*
X495000D01*
X440000D02*
X452500D01*
X440000D02*
Y922900D01*
X427500Y910400D02*
X440000D01*
Y897900D02*
Y910400D01*
X298900Y858780D02*
X310275D01*
X708500Y376850D02*
X722000D01*
X708500D02*
Y390350D01*
X695000Y376850D02*
X708500D01*
X298900Y858780D02*
Y870155D01*
X287525Y858780D02*
X298900D01*
Y847405D02*
Y858780D01*
X222700Y847405D02*
Y858780D01*
X234075D01*
X211325D02*
X222700D01*
Y870155D01*
X127000Y858000D02*
Y870500D01*
Y858000D02*
X139500D01*
X114500D02*
X127000D01*
Y845500D02*
Y858000D01*
D42*
X377000Y128750D02*
Y604000D01*
X280500Y36000D02*
Y512250D01*
Y36000D02*
X280750Y35750D01*
X323750Y63500D02*
X326250Y61000D01*
X323750Y78950D02*
X323750Y78950D01*
Y63500D02*
Y78950D01*
X323750Y78950D02*
Y301771D01*
X329671Y699000D02*
X345250D01*
X261500Y444500D02*
Y694750D01*
Y242250D02*
Y444500D01*
X260750Y241500D02*
X261500Y242250D01*
Y694750D02*
Y741142D01*
X280750Y512500D02*
Y714000D01*
X261500Y741142D02*
X267358Y747000D01*
X318312D01*
X324170Y752858D02*
Y763420D01*
X318312Y747000D02*
X324170Y752858D01*
X323813Y693142D02*
X329671Y699000D01*
X323813Y542169D02*
Y693142D01*
X323750Y301771D02*
Y542107D01*
D43*
X353000Y258000D02*
Y605000D01*
Y51500D02*
Y258000D01*
X510250Y691750D02*
X553250Y648750D01*
X553000Y24868D02*
Y499750D01*
X553250Y500000D02*
Y648750D01*
X553000Y499750D02*
X553250Y500000D01*
X353000Y51500D02*
X376750Y27750D01*
X439750Y691750D02*
X510250D01*
X371500Y623500D02*
X371500D01*
X439750Y691750D01*
X353000Y605000D02*
X371500Y623500D01*
D44*
X40000Y40000D02*
D03*
X760000Y900000D02*
D03*
Y40000D02*
D03*
X40000Y900000D02*
D03*
D45*
X440000Y859600D02*
D03*
X495000D02*
D03*
X545000D02*
D03*
D46*
X440000Y910400D02*
D03*
Y885000D02*
D03*
X495000Y910400D02*
D03*
Y885000D02*
D03*
X545000Y910400D02*
D03*
Y885000D02*
D03*
X110000Y110000D02*
D03*
Y140000D02*
D03*
X140000Y110000D02*
D03*
Y140000D02*
D03*
X153000Y858000D02*
D03*
X127000D02*
D03*
D47*
X708500Y326050D02*
D03*
Y351450D02*
D03*
Y376850D02*
D03*
D48*
Y300650D02*
D03*
D49*
X197300Y858780D02*
D03*
D50*
X222700D02*
D03*
X273500D02*
D03*
X298900D02*
D03*
X324300D02*
D03*
D51*
X460750Y47000D02*
D03*
X164000Y353000D02*
D03*
X163500Y583000D02*
D03*
X175500Y600500D02*
D03*
X140000Y313750D02*
D03*
X193250Y147000D02*
D03*
X167250Y323500D02*
D03*
X553250Y500000D02*
D03*
X552750Y24250D02*
D03*
X376750Y27750D02*
D03*
X377250Y604250D02*
D03*
X553000Y258000D02*
D03*
X352750Y502750D02*
D03*
X353000Y258000D02*
D03*
X280750Y35750D02*
D03*
X326250Y61000D02*
D03*
X260750Y241500D02*
D03*
X280500Y267250D02*
D03*
X223000Y159000D02*
D03*
X213250Y387250D02*
D03*
X720000Y820000D02*
D03*
X550500Y709000D02*
D03*
X378500Y659000D02*
D03*
X261500Y694750D02*
D03*
X303750Y275000D02*
D03*
X280500Y512250D02*
D03*
X280750Y714000D02*
D03*
X261500Y444500D02*
D03*
X225750Y537000D02*
D03*
X510250Y691750D02*
D03*
X345250Y698750D02*
D03*
X310000Y521750D02*
D03*
X323750Y301771D02*
D03*
X324250Y763500D02*
D03*
X377000Y358000D02*
D03*
X377500Y128250D02*
D03*
X224500Y72250D02*
D03*
X323813Y542169D02*
D03*
X299000Y42250D02*
D03*
M02*
